<svg version="1.1" xmlns="http://www.w3.org/2000/svg" xmlns:xlink="http://www.w3.org/1999/xlink" x="0px" y="0px" viewBox="0 0 925.1 497.4" style="enable-background:new 0 0 925.1 497.4;" id="SJygYcTrjXf">
    <style>
        #HkZgFcaSs7z{fill: #FFD8A2;}#S1Metq6HsQM{fill: #E4BCA8;}#rkXeF5Trjmz{fill: #FFE7E0;}#HyElt56rsQM{fill: #FFD8A2;}#SJrxY9aSomz{fill: #E4BCA8;}#SyIgt96rsXz{fill: #FFE7E0;}#r1wlt9TroXf{fill: #FFD8A2;}#HkOgY96rsmf{fill: #E4BCA8;}#SyKlt96HiXM{fill: #FFD8A2;}#r15xY5TroQG{fill: #E4BCA8;}#B1sltqTHo7G{fill: #FFE7DF;}#B1hlK96Ss7f{fill: #FFDECA;stroke: #FFDECA;stroke-miterlimit: 10;}#rJ6lF9pHjmf{fill: #C8807B;}#r1ClFcTriQM{fill: #FFE8E1;stroke: #FFE8E1;stroke-linecap: round;stroke-miterlimit: 10;}#H1yWK9aSiQG{fill: #EFBFA5;stroke: #EFBFA5;stroke-miterlimit: 10;}#BJgZF56Hs7z{fill: #B16667;stroke: #B16667;stroke-miterlimit: 10;}#ry--F96Hj7z{fill: #984E56;}#B1MbFcTSj7G{fill: #FFDECA;stroke: #FFDECA;stroke-miterlimit: 10;}#rJmZt96SjXf{fill: #973741;stroke: #973741;stroke-linecap: round;stroke-linejoin: round;stroke-miterlimit: 10;}#ryV-Y9THs7f{fill: #8B001E;stroke: #8B001E;stroke-linecap: round;stroke-linejoin: round;stroke-miterlimit: 10;}#HyH-FcaSo7f{fill: #B06264;}#SkIZKqpBsmM{fill: #FFBE9F;stroke: #FFBE9F;stroke-linecap: round;stroke-linejoin: round;stroke-miterlimit: 10;}#H1PZK9pSsXM{fill: #D0856C;stroke: #D0856C;stroke-miterlimit: 10;}#SJdWKcpHomf{fill: #FFDECA;stroke: #FFDECA;stroke-miterlimit: 10;}#rkFbtqTSj7G{fill: #830027;stroke: #8B001E;stroke-linecap: round;stroke-linejoin: round;stroke-miterlimit: 10;}#SyqWF9pBsQz{fill: #D0856C;stroke: #D0856C;stroke-miterlimit: 10;}#ryjbK9aSsXM{transform:  matrix(1,0,0,1,-535.3853,77.7637);}#rk2WFc6Hi7f{font-family: 'MyriadPro-Regular';font-size: 40px;}#Syp-t56Bjmz{font-family: 'MyriadPro-Regular';font-size: 40px;}#Sk0ZY5aHj7z{transform:  matrix(1,0,0,1,-581.3848,249.7637);}#Sk1zKcpHoQG{font-family: 'MyriadPro-Regular';font-size: 40px;}#BJeMYqpSiQM{font-family: 'MyriadPro-Regular';font-size: 40px;}#S1bfF9pBsXz{transform:  matrix(1,0,0,1,-524.6656,418.7637);}#BkfGYqpSjXf{font-family: 'MyriadPro-Regular';font-size: 40px;}#BJmfK96SimG{font-family: 'MyriadPro-Regular';font-size: 40px;}#H1VMF9THs7z{transform:  matrix(1,0,0,1,-569.6255,-30.2363);}#B1rMFcaBoQz{font-family: 'MyriadPro-Regular';font-size: 40px;}#SJLzYcTSiQf{font-family: 'MyriadPro-Regular';font-size: 40px;}#BkOGF9pBoXG{fill: #FFE7DF;}#H1Yztq6BomG{fill: none;stroke: #D17C7C;stroke-linecap: round;stroke-linejoin: round;stroke-miterlimit: 10;}#H1cGtqariQM{fill: none;stroke: #D17C7C;stroke-linecap: round;stroke-linejoin: round;stroke-miterlimit: 10;}#H1jGt96Hj7f{fill: none;stroke: #D17C7C;stroke-linecap: round;stroke-linejoin: round;stroke-miterlimit: 10;}#B13MF96rsmf{fill: none;stroke: #D17C7C;stroke-linecap: round;stroke-linejoin: round;stroke-miterlimit: 10;}#Sy6MFc6rjmf{fill: none;stroke: #D17C7C;stroke-linecap: round;stroke-linejoin: round;stroke-miterlimit: 10;}#ryWQF5THsQG{fill: #B16667;stroke: #B16667;stroke-linecap: round;stroke-linejoin: round;stroke-miterlimit: 10;}#SJfXK5pHs7f{fill: none;stroke: #B16667;stroke-miterlimit: 10;}#BJm7tcarsQf{fill: #EFBFA5;stroke: #EFBFA5;stroke-miterlimit: 10;}#SyVQK5pHsXM{fill: #EFBFA5;stroke: #EFBFA5;stroke-miterlimit: 10;}#r1LmYcpSoXM{fill: none;stroke: #B16667;stroke-miterlimit: 10;}#SkwQt9aHsmz{fill: #B16667;stroke: #B16667;stroke-miterlimit: 10;}#SyqmK96SimG{fill: #984E56;}#HyoXYqpSomM{fill: #EFBFA5;stroke: #EFBFA5;stroke-miterlimit: 10;}#rJ3QYc6Hj7G{fill: #984E56;}#HkAXtcaroXz{fill: #FFE7DF;}#rky4t9aromG{fill: none;stroke: #8B001E;stroke-width: 0.75;stroke-linecap: round;stroke-linejoin: round;stroke-miterlimit: 10;}#rJlVKqaHsmM{fill: none;stroke: #8B001E;stroke-width: 0.75;stroke-linecap: round;stroke-linejoin: round;stroke-miterlimit: 10;}#BkG4tqTSoXz{fill: #B06264;}#rJQEKcaSsmG{fill: none;stroke: #FFE7DF;stroke-width: 0.75;stroke-miterlimit: 10;}#Bk4VKcaBoQM{fill: none;stroke: #FFE7DF;stroke-width: 0.75;stroke-miterlimit: 10;}#S1UNKc6Bs7G{fill: #EFBFA5;}#SywVt5arsXz{fill: #EFBFA5;}

	@keyframes BkSQt96SoXzAnimation {
		0% {
			transform: translate(0px, 0px);
		}
		50% {
			transform: translate(4px, 10px);
		}
		66.67% {
			transform: translate(10px, 6px);
		}
		100% {
			transform: translate(0px, 0px);
		}
	}

	#BkSQt96SoXz {
		transform-origin: 50% 50% !important;
		animation: BkSQt96SoXzAnimation 3s infinite linear;
	}



	@keyframes rJH4F9pBjXfAnimation {
		0% {
			transform: translate(0px, 0px);
		}
		50% {
			transform: translate(4px, 10px);
		}
		66.67% {
			transform: translate(10px, 6px);
		}
		100% {
			transform: translate(0px, 0px);
		}
	}

	#rJH4F9pBjXf {
		transform-origin: 50% 50% !important;
		animation: rJH4F9pBjXfAnimation 3s infinite linear;
	}



	@keyframes BJbNK5pHi7GAnimation {
		0% {
			opacity: 0;
			transform: translate(0px, 10px);
		}
		33.33% {
			opacity: 0;
		}
		50% {
			opacity: 1;
			transform: translate(0px, 10px);
		}
		66.67% {
			opacity: 1;
			transform: translate(0px, -10px);
		}
		100% {
			opacity: 0;
			transform: translate(0px, -10px);
		}
		40% {
			transform: translate(0px, 15px);
		}
	}

	#BJbNK5pHi7G {
		transform-origin: 50% 50% !important;
		animation: BJbNK5pHi7GAnimation 3s infinite linear;
	}
    </style>
    <svg version="1.1" xmlns="http://www.w3.org/2000/svg" xmlns:xlink="http://www.w3.org/1999/xlink" x="0px" y="0px" viewBox="0 0 925.1 497.4" style="enable-background:new 0 0 925.1 497.4;" xml:space="preserve" id="SJygYcTrjXf"><g id="HkgxF5THsQz"><rect x="-380.8" y="-71.6" class="st0" width="47" height="97" id="HkZgFcaSs7z"/><rect x="-312.8" y="-71.6" class="st1" width="47" height="97" id="S1Metq6HsQM"/><rect x="-244.8" y="-71.6" class="st2" width="47" height="97" id="rkXeF5Trjmz"/><rect x="-380.8" y="40.4" class="st0" width="47" height="97" id="HyElt56rsQM"/><rect x="-312.8" y="40.4" class="st1" width="47" height="97" id="SJrxY9aSomz"/><rect x="-244.8" y="40.4" class="st2" width="47" height="97" id="SyIgt96rsXz"/><rect x="-380.8" y="152.4" class="st0" width="47" height="97" id="r1wlt9TroXf"/><rect x="-312.8" y="152.4" class="st1" width="47" height="97" id="HkOgY96rsmf"/><rect x="-380.8" y="265.4" class="st0" width="47" height="97" id="SyKlt96HiXM"/><rect x="-312.8" y="265.4" class="st1" width="47" height="97" id="r15xY5TroQG"/><rect x="-380.8" y="-71.6" class="st3" width="47" height="97" id="B1sltqTHo7G"/><rect x="-312.8" y="-71.6" class="st4" width="47" height="97" id="B1hlK96Ss7f"/><rect x="-244.8" y="-71.6" class="st5" width="47" height="97" id="rJ6lF9pHjmf"/><rect x="-448.3" y="-71.1" class="st6" width="47" height="97" id="r1ClFcTriQM"/><rect x="-380.8" y="40.4" class="st7" width="47" height="97" id="H1yWK9aSiQG"/><rect x="-312.8" y="40.4" class="st8" width="47" height="97" id="BJgZF56Hs7z"/><rect x="-244.8" y="40.4" class="st9" width="47" height="97" id="ry--F96Hj7z"/><rect x="-448.3" y="40.9" class="st4" width="47" height="97" id="B1MbFcTSj7G"/><rect x="-380.8" y="152.4" class="st10" width="47" height="97" id="rJmZt96SjXf"/><rect x="-312.8" y="152.4" class="st11" width="47" height="97" id="ryV-Y9THs7f"/><rect x="-448.3" y="152.9" class="st12" width="47" height="97" id="HyH-FcaSo7f"/><rect x="-380.8" y="265.4" class="st13" width="47" height="97" id="SkIZKqpBsmM"/><rect x="-312.8" y="265.4" class="st14" width="47" height="97" id="H1PZK9pSsXM"/><rect x="-448.3" y="265.9" class="st4" width="47" height="97" id="SJdWKcpHomf"/><rect x="-380.8" y="379.4" class="st15" width="47" height="97" id="rkFbtqTSj7G"/><rect x="-448.3" y="379.9" class="st14" width="47" height="97" id="SyqWF9pBsQz"/><text id="ryjbK9aSsXM"><tspan x="0" y="0" id="rk2WFc6Hi7f">skin </tspan><tspan x="-47.6" y="48" id="Syp-t56Bjmz">colours</tspan></text><text id="Sk0ZY5aHj7z"><tspan x="0" y="0" id="Sk1zKcpHoQG">clothes</tspan><tspan x="-1.6" y="48" id="BJeMYqpSiQM">colours</tspan></text><text id="S1bfF9pBsXz"><tspan x="0" y="0" id="BkfGYqpSjXf">hair</tspan><tspan x="-58.3" y="48" id="BJmfK96SimG">colours</tspan></text><text id="H1VMF9THs7z"><tspan x="0" y="0" id="B1rMFcaBoQz">theme</tspan><tspan x="-13.4" y="48" id="SJLzYcTSiQf">colours</tspan></text></g><g id="H1PztcpHsXf"><path class="st3" d="M895.3,375.3c-8.5,27.3-24,53.2-42.9,75.5c-8.2,9.7-17.5,18.5-27.9,25.9c-21.8,15.6-43.3,20.7-68.9,20.7&#10;&#9;&#9;c-20.6,0-41.3,0-61.9,0c-61.6,0-123.2,0-184.7,0c-61.2,0-122.3,0-183.5,0c-27.7,0-55.5,0-83.2,0c-1.8-0.4-3.4-1.1-5.5-1.1&#10;&#9;&#9;c-26.3-24-64.1-29.3-99.2-35.3c-35.1-5.9-73-15.3-94.6-43.7c-15.4-20.3-19.6-46.9-20.2-72.4c-0.7-31.4,3.5-63.6,17.4-91.8&#10;&#9;&#9;c13.9-28.2,38.4-52.1,68.7-60.5c14.1-3.9,29.3-4.5,42.5-10.7c15.4-7.2,26.4-21,36.7-34.6C236.1,84.4,323.5-33,415.6,27.6&#10;&#9;&#9;c19,12.5,33.4,31.9,54.1,41.3c21.8,9.9,47.4,7,70.2-0.2c22.8-7.2,44.3-18.3,67.3-24.9c50.8-14.6,107.8-5.5,151.5,24.3&#10;&#9;&#9;c6.7,4.6,13.2,9.7,17.9,16.4c17.4,25.3,2.3,62.1,16.3,89.4c7.4,14.3,21.6,23.6,34.5,33.2c22.8,17,43.6,37.3,57.8,61.8&#10;&#9;&#9;C905.4,303.5,906.1,340.5,895.3,375.3z" id="BkOGF9pBoXG"/><line class="st16" x1="912.7" y1="437.9" x2="768.7" y2="437.9" id="H1Yztq6BomG"/><line class="st16" x1="894.7" y1="460.9" x2="819.7" y2="460.9" id="H1cGtqariQM"/><line class="st16" x1="71.7" y1="198.9" x2="146.7" y2="198.9" id="H1jGt96Hj7f"/><line class="st16" x1="87.7" y1="186.9" x2="196.7" y2="186.9" id="B13MF96rsmf"/><line class="st16" x1="867.7" y1="449.9" x2="680.2" y2="449.9" id="Sy6MFc6rjmf"/></g><g id="r1RMY56Bs7z"><g><g id="SklmKcaHj7M"><path class="st17" d="M552,461.9H328.4c-3.1,0-5.7-2.5-5.7-5.7v-57.6c0-3.1,2.5-5.7,5.7-5.7H552c3.1,0,5.7,2.5,5.7,5.7v57.6&#10;&#9;&#9;&#9;&#9;C557.7,459.3,555.2,461.9,552,461.9z" id="ryWQF5THsQG"/><path class="st18" d="M367.2,396.5c-5.5-8.5-11.2-19-6.9-28.2c3.7-7.9,13.6-11,22.3-10.4c8.7,0.6,16.9,4.1,25.5,5.8&#10;&#9;&#9;&#9;&#9;c8.6,1.7,18.4,1.3,24.7-4.7c5.8-5.5,7.2-14.4,5.4-22.1c-1.7-7.7-6.1-14.6-10.7-21.1" id="SJfXK5pHs7f"/></g><rect x="343.7" y="410.9" class="st7" width="141" height="37" id="BJm7tcarsQf"/><rect x="501.7" y="410.9" class="st7" width="46" height="37" id="SyVQK5pHsXM"/></g><g id="BkSQt96SoXz"><path class="st18" d="M564.6,309.4c0.2,5.3,0.7,10.6,2.7,15.5c2,4.9,6,9.2,11.1,10.5c2,0.5,4.3,0.5,6-0.8s2.3-3.9,0.9-5.4&#10;&#9;&#9;&#9;c-1.9-2.1-5.8-0.1-6.1,2.6s1.8,5.3,4.3,6.6c2.5,1.2,5.3,1.6,8,2.3c2.7,0.7,5.4,2.1,6.6,4.6c2.1,4.4-1.4,9.2-4.2,13.3&#10;&#9;&#9;&#9;s-4.3,10.6,0,12.9c4.3,2.4,9.6-2.4,14.2-0.8c2.7,0.9,4.3,4.2,3.4,6.9s-4.1,4.3-6.8,3.5c-0.9-3.1,1-6.7,4-7.8&#10;&#9;&#9;&#9;c3-1.2,6.8,0.3,8.2,3.2c2.8,5.6-3,12.6-0.4,18.2c1.5,3.1,5,4.6,8.4,5.4c3.4,0.7,7,1.1,9.8,3c2.9,1.9,4.7,6.1,2.6,8.8" id="r1LmYcpSoXM"/><path class="st8" d="M605.6,429.8c4.5-8.4,10.5-16,17.6-22.3c3.4-3.1,8.7-2.9,11.8,0.5l8.9,9.4c2.2,2.3,4.5,5,4.2,8.2&#10;&#9;&#9;&#9;c-0.2,2-1.4,3.7-2.7,5.2C634.9,443.4,588.4,462,605.6,429.8z" id="SkwQt9aHsmz"/></g><g id="rJdQF9pHi7z"><g><path class="st9" d="M642.8,321.7H344.3c-15,0-27.2-12.2-27.2-27.2V116.9c0-15,12.2-27.2,27.2-27.2h298.5&#10;&#9;&#9;&#9;&#9;c15,0,27.2,12.2,27.2,27.2v177.5C670.1,309.5,657.9,321.7,642.8,321.7z" id="SyqmK96SimG"/><rect x="354.1" y="123.1" class="st7" width="279" height="165.2" id="HyoXYqpSomM"/></g><path class="st9" d="M454.5,372.7c14,9.4,31.5,11.9,48.4,12c10.7,0.1,22.6-1.2,29.7-9.2c-6-8-10-17.4-11.8-27.3&#10;&#9;&#9;&#9;c-0.9-5.3-1.2-10.7-1.9-16c-0.9-6.5-2.3-12.8-4.4-19c-0.3-0.8-0.6-1.6-1.3-2.1c-0.7-0.5-1.5-0.5-2.4-0.6&#10;&#9;&#9;&#9;c-13.3-0.5-26.5-0.9-39.8-1.4c2.6,9.9,2.2,22.3-0.4,32C470,343.7,456.1,373.8,454.5,372.7z" id="rJ3QYc6Hj7G"/></g><g id="S1pXKcaHiXf"><path class="st3" d="M493.2,184.2v-36.6c0-6.2-5-11.2-11.2-11.2H374.4c-6.2,0-11.2,5-11.2,11.2v36.6c0,6.2,5,11.2,11.2,11.2h100.9&#10;&#9;&#9;&#9;c-0.1,0-0.1,0-0.2,0c1.8,2.3,4.1,4.2,6.7,5.5c3.4,1.7,7.6,2.4,10.9,0.4c-3.6-0.6-6.8-2.9-8.5-6.1&#10;&#9;&#9;&#9;C489.4,194.1,493.2,189.6,493.2,184.2z" id="HkAXtcaroXz"/><path class="st19" d="M370.1,156.5c2.2-2.2,6-1.7,8.9-0.4c2.9,1.3,5.6,3.3,8.7,3.5c3.7,0.3,7.1-1.9,10.4-3.5&#10;&#9;&#9;&#9;c3.3-1.6,7.5-2.8,10.6-0.7" id="rky4t9aromG"/><path class="st19" d="M385.6,177c3.7-1,7.6-1.5,11.4-0.6c2.8,0.7,5.4,2.1,8.2,2.7c2.8,0.7,6.2,0.4,8.1-1.8&#10;&#9;&#9;&#9;c0.3-0.4,0.6-0.9,0.7-1.4c0.1-1.8-3-2.1-3.7-0.4s0.5,3.5,2.1,4.3c3,1.5,6.7,0.3,9.5-1.5c2.9-1.7,5.6-4,8.8-4.8&#10;&#9;&#9;&#9;c4.9-1.1,9.8,1.6,14.3,3.9s9.9,4.3,14.4,2" id="rJlVKqaHsmM"/></g><g id="BJbNK5pHi7G"><path class="st12" d="M508.9,260v-31.1c0-5.3,4.3-9.5,9.5-9.5h91.3c5.3,0,9.5,4.3,9.5,9.5V260c0,5.3-4.3,9.5-9.5,9.5H524&#10;&#9;&#9;&#9;c0,0,0.1,0,0.1,0c-1.5,2-3.5,3.6-5.7,4.7c-2.9,1.5-6.5,2-9.2,0.3c3.1-0.5,5.8-2.5,7.3-5.2C512.2,268.4,508.9,264.6,508.9,260z" id="BkG4tqTSoXz"/><path class="st20" d="M524.3,231.8c3.4,0.2,6.6-2.1,10-1.7c4.2,0.5,7,4.9,11.1,6c5.2,1.4,10.2-2.8,15.5-3.9&#10;&#9;&#9;&#9;c8.2-1.8,17.7,3.8,24.7-0.8" id="rJQEKcaSsmG"/><path class="st20" d="M552.5,253c4-3.2,9.9-1.4,14.7,0.2c2.4,0.8,5,1.5,7.4,0.9c2.4-0.6,4.6-3.1,4-5.5c-0.6-2.5-4.7-3.3-5.6-0.9&#10;&#9;&#9;&#9;c-0.9,2.3,1.9,4.4,4.3,4.5c2.4,0,4.8-1.1,7.2-0.9c2.7,0.2,5.1,1.8,7.4,3.1c2.4,1.3,5.4,2.2,7.7,0.9" id="Bk4VKcaBoQM"/></g><g id="rJH4F9pBjXf"><path class="st21" d="M544.5,520.1c-2.6,0-5.7-0.8-5.7-3c0-0.8,0.4-1.6,0.8-2.4c13.6-24.9,30-51.1,50-80.3&#10;&#9;&#9;&#9;c3-4.5,6.8-10.2,12.3-12.9c3.2-1.6,6.9-2.3,12-2.3c1.9,0,3.8,0.1,5.7,0.2c2.8,0.1,6,0.3,8.6,1.8c2.4,1.4,4.2,4.3,3.2,7&#10;&#9;&#9;&#9;c-1.3,3.5-5.8,3.7-10.2,3.9c-0.8,0-1.7,0.1-2.5,0.1c-7.5,0.6-14.7,5.4-19.9,13.3c-3.9,5.9-6.2,12.7-8.5,19.2&#10;&#9;&#9;&#9;c-0.4,1.1-0.7,2.1-1.1,3.2c-4.7,13.3-10.6,26.4-17.4,38.8c-1.5,2.7-3.1,5.4-5.2,7.4c-5.4,5.1-13.4,5.8-21.8,6&#10;&#9;&#9;&#9;C544.7,520.1,544.6,520.1,544.5,520.1z" id="S1UNKc6Bs7G"/><path class="st21" d="M613.9,419.7L613.9,419.7c1.9,0,3.8,0.1,5.7,0.2c2.7,0.1,5.9,0.3,8.3,1.7c2.2,1.3,3.9,4,3,6.4&#10;&#9;&#9;&#9;c-1.2,3.2-5.5,3.4-9.7,3.6c-0.9,0-1.7,0.1-2.5,0.1c-7.6,0.6-15,5.5-20.3,13.5c-3.9,5.9-6.3,12.8-8.6,19.3&#10;&#9;&#9;&#9;c-0.4,1.1-0.7,2.1-1.1,3.2c-4.7,13.3-10.6,26.3-17.4,38.7c-1.5,2.7-3,5.3-5.1,7.3c-5.3,5-13.2,5.7-21.5,5.9c-0.1,0-0.2,0-0.4,0&#10;&#9;&#9;&#9;c-0.5,0-5.2-0.1-5.2-2.5c0-0.7,0.4-1.4,0.8-2.1c13.6-24.9,30-51.1,50-80.2c3-4.5,6.7-10.1,12.1-12.8&#10;&#9;&#9;&#9;C605.2,420.4,608.9,419.7,613.9,419.7 M613.9,418.7c-4.3,0-8.5,0.5-12.3,2.3c-5.5,2.7-9.1,8-12.5,13.1c-17.8,25.9-35,52.8-50,80.3&#10;&#9;&#9;&#9;c-0.4,0.8-0.9,1.7-0.9,2.6c0.1,2.7,3.5,3.5,6.2,3.5c0.1,0,0.3,0,0.4,0c7.9-0.2,16.5-0.8,22.2-6.2c2.2-2.1,3.8-4.8,5.3-7.6&#10;&#9;&#9;&#9;c6.9-12.4,12.7-25.4,17.5-38.8c2.7-7.6,5.1-15.5,9.5-22.3s11.4-12.4,19.5-13c4.9-0.4,11.4,0.2,13.1-4.3c1.1-2.8-0.8-6.1-3.5-7.6&#10;&#9;&#9;&#9;c-2.6-1.5-5.8-1.7-8.8-1.9C617.8,418.8,615.9,418.7,613.9,418.7L613.9,418.7z" id="SywVt5arsXz"/></g></g></svg>
</svg>