<svg version="1.1" xmlns="http://www.w3.org/2000/svg" xmlns:xlink="http://www.w3.org/1999/xlink" x="0px" y="0px" viewBox="0 0 925.1 497.4" style="enable-background:new 0 0 925.1 497.4;" id="ryPJNUSjmz">
    <style>
        #SyKkNLHiQG{fill: #FFD8A2;}#Hk9J4LrsXf{fill: #E4BCA8;}#B1jkELHoQG{fill: #FFE7E0;}#SJ2J4IrsQG{fill: #FFD8A2;}#HJayELSjmM{fill: #E4BCA8;}#r1014UBsQG{fill: #FFE7E0;}#r11ly4ISiXz{fill: #FFD8A2;}#SJgxkNLrsQz{fill: #E4BCA8;}#HJbgJEIBjmz{fill: #FFD8A2;}#rJGlJEIHo7M{fill: #E4BCA8;}#r1XlJEIHi7f{fill: #FFE7DF;}#rJNxyEISs7G{fill: #FFDECA;stroke: #FFDECA;stroke-miterlimit: 10;}#SJHgyEUroQM{fill: #C8807B;}#H1LekVUSoQG{fill: #FFE8E1;stroke: #FFE8E1;stroke-linecap: round;stroke-miterlimit: 10;}#rkPeJ4Urs7z{fill: #EFBFA5;stroke: #EFBFA5;stroke-miterlimit: 10;}#By_eJNLHo7M{fill: #B16667;stroke: #B16667;stroke-miterlimit: 10;}#SJYlyE8BjQf{fill: #984E56;}#rJqgk4Urs7M{fill: #FFDECA;stroke: #FFDECA;stroke-miterlimit: 10;}#SyoxkNLSsmM{fill: #973741;stroke: #973741;stroke-linecap: round;stroke-linejoin: round;stroke-miterlimit: 10;}#rJnlyN8rsQz{fill: #8B001E;stroke: #8B001E;stroke-linecap: round;stroke-linejoin: round;stroke-miterlimit: 10;}#HkaxkNLHoXf{fill: #B06264;}#r1AgJEIHoXz{fill: #FFBE9F;stroke: #FFBE9F;stroke-linecap: round;stroke-linejoin: round;stroke-miterlimit: 10;}#HykWJELSjXM{fill: #D0856C;stroke: #D0856C;stroke-miterlimit: 10;}#H1lW1V8BjQG{fill: #FFDECA;stroke: #FFDECA;stroke-miterlimit: 10;}#B1W-1NUrjmz{fill: #830027;stroke: #8B001E;stroke-linecap: round;stroke-linejoin: round;stroke-miterlimit: 10;}#Skf-JEUHimz{fill: #D0856C;stroke: #D0856C;stroke-miterlimit: 10;}#rJQbkNIrsXf{transform:  matrix(1,0,0,1,-535.3853,77.7637);}#rJNWkVIBiQz{font-family: 'MyriadPro-Regular';font-size: 40px;}#HJS-k4IrsXM{font-family: 'MyriadPro-Regular';font-size: 40px;}#rJLWJNLSj7M{transform:  matrix(1,0,0,1,-581.3848,249.7637);}#SJwWy48riXM{font-family: 'MyriadPro-Regular';font-size: 40px;}#B1_-yELBomM{font-family: 'MyriadPro-Regular';font-size: 40px;}#SJK-1EIroQG{transform:  matrix(1,0,0,1,-524.6656,418.7637);}#Hy5Wk48Ho7f{font-family: 'MyriadPro-Regular';font-size: 40px;}#r1sby4UrjQz{font-family: 'MyriadPro-Regular';font-size: 40px;}#rJ3W1NUrjmG{transform:  matrix(1,0,0,1,-569.6255,-30.2363);}#rkpbJNLSiXf{font-family: 'MyriadPro-Regular';font-size: 40px;}#S1CZy4UroXG{font-family: 'MyriadPro-Regular';font-size: 40px;}#SyeGyVIHs7f{fill: #FFFAF9;}#B1-fyNISsmf{fill: none;stroke: #D17C7C;stroke-linecap: round;stroke-linejoin: round;stroke-miterlimit: 10;}#SJGGJNUHsQf{fill: none;stroke: #D17C7C;stroke-linecap: round;stroke-linejoin: round;stroke-miterlimit: 10;}#rkmzk48So7f{fill: none;stroke: #D17C7C;stroke-linecap: round;stroke-linejoin: round;stroke-miterlimit: 10;}#S1Vz1VUHs7M{fill: none;stroke: #D17C7C;stroke-linecap: round;stroke-linejoin: round;stroke-miterlimit: 10;}#BkHz1EIHjQf{fill: none;stroke: #D17C7C;stroke-linecap: round;stroke-linejoin: round;stroke-miterlimit: 10;}#r1Pfy4UBsQz{fill: #FFDECA;stroke: #FFDECA;stroke-miterlimit: 10;}#ryjMyEIHoXf{fill: #8B001E;stroke: #8B001E;stroke-linecap: round;stroke-linejoin: round;stroke-miterlimit: 10;}#rJnMyV8Bs7z{fill: #B06264;}#r1pMk4LSj7M{fill: #C8807B;}#Sky7yEIrsQf{fill: #B16667;stroke: #B16667;stroke-miterlimit: 10;}#SyxXkVUrsQM{fill: none;stroke: #FFE8E1;stroke-width: 0.75;stroke-linecap: round;stroke-miterlimit: 10;}#rkm7JVISo7G{fill: #FFDECA;stroke: #FFDECA;stroke-linecap: round;stroke-linejoin: round;stroke-miterlimit: 10;}#HJ47JNUSimM{fill: none;stroke: #FFDECA;stroke-width: 3;stroke-linecap: round;stroke-linejoin: round;stroke-miterlimit: 10;}#r1rmy4LSjXf{fill: none;stroke: #FFDECA;stroke-width: 3;stroke-linecap: round;stroke-linejoin: round;stroke-miterlimit: 10;}#Skv7kEUBimz{fill: #C8807B;}#SJ_mkELro7M{fill: #FFDECA;stroke: #FFDECA;stroke-linecap: round;stroke-linejoin: round;stroke-miterlimit: 10;}#SJ9m1VLSsXf{fill: #FFDECA;stroke: #FFDECA;stroke-miterlimit: 10;}

	@keyframes HJ-XJEUSj7MAnimation {
		0% {
			opacity: 0;
			transform: translate(0px, 0px);
		}
		33.33% {
			opacity: 0;
			transform: translate(0px, 15px);
		}
		50% {
			opacity: 1;
			transform: translate(0px, 0px);
		}
		66.67% {
			opacity: 1;
			transform: translate(0px, 0px);
		}
		100% {
			opacity: 0;
			transform: translate(0px, 0px);
		}
	}

	#HJ-XJEUSj7M {
		transform-origin: 50% 50% !important;
		animation: HJ-XJEUSj7MAnimation 3s infinite linear;
	}
    </style>
    <svg version="1.1" xmlns="http://www.w3.org/2000/svg" xmlns:xlink="http://www.w3.org/1999/xlink" x="0px" y="0px" viewBox="0 0 925.1 497.4" style="enable-background:new 0 0 925.1 497.4;" xml:space="preserve" id="ryPJNUSjmz"><g id="H1ukNUSsQG"><rect x="-380.8" y="-71.6" class="st0" width="47" height="97" id="SyKkNLHiQG"/><rect x="-312.8" y="-71.6" class="st1" width="47" height="97" id="Hk9J4LrsXf"/><rect x="-244.8" y="-71.6" class="st2" width="47" height="97" id="B1jkELHoQG"/><rect x="-380.8" y="40.4" class="st0" width="47" height="97" id="SJ2J4IrsQG"/><rect x="-312.8" y="40.4" class="st1" width="47" height="97" id="HJayELSjmM"/><rect x="-244.8" y="40.4" class="st2" width="47" height="97" id="r1014UBsQG"/><rect x="-380.8" y="152.4" class="st0" width="47" height="97" id="r11ly4ISiXz"/><rect x="-312.8" y="152.4" class="st1" width="47" height="97" id="SJgxkNLrsQz"/><rect x="-380.8" y="265.4" class="st0" width="47" height="97" id="HJbgJEIBjmz"/><rect x="-312.8" y="265.4" class="st1" width="47" height="97" id="rJGlJEIHo7M"/><rect x="-380.8" y="-71.6" class="st3" width="47" height="97" id="r1XlJEIHi7f"/><rect x="-312.8" y="-71.6" class="st4" width="47" height="97" id="rJNxyEISs7G"/><rect x="-244.8" y="-71.6" class="st5" width="47" height="97" id="SJHgyEUroQM"/><rect x="-448.3" y="-71.1" class="st6" width="47" height="97" id="H1LekVUSoQG"/><rect x="-380.8" y="40.4" class="st7" width="47" height="97" id="rkPeJ4Urs7z"/><rect x="-312.8" y="40.4" class="st8" width="47" height="97" id="By_eJNLHo7M"/><rect x="-244.8" y="40.4" class="st9" width="47" height="97" id="SJYlyE8BjQf"/><rect x="-448.3" y="40.9" class="st4" width="47" height="97" id="rJqgk4Urs7M"/><rect x="-380.8" y="152.4" class="st10" width="47" height="97" id="SyoxkNLSsmM"/><rect x="-312.8" y="152.4" class="st11" width="47" height="97" id="rJnlyN8rsQz"/><rect x="-448.3" y="152.9" class="st12" width="47" height="97" id="HkaxkNLHoXf"/><rect x="-380.8" y="265.4" class="st13" width="47" height="97" id="r1AgJEIHoXz"/><rect x="-312.8" y="265.4" class="st14" width="47" height="97" id="HykWJELSjXM"/><rect x="-448.3" y="265.9" class="st4" width="47" height="97" id="H1lW1V8BjQG"/><rect x="-380.8" y="379.4" class="st15" width="47" height="97" id="B1W-1NUrjmz"/><rect x="-448.3" y="379.9" class="st14" width="47" height="97" id="Skf-JEUHimz"/><text id="rJQbkNIrsXf"><tspan x="0" y="0" id="rJNWkVIBiQz">skin </tspan><tspan x="-47.6" y="48" id="HJS-k4IrsXM">colours</tspan></text><text id="rJLWJNLSj7M"><tspan x="0" y="0" id="SJwWy48riXM">clothes</tspan><tspan x="-1.6" y="48" id="B1_-yELBomM">colours</tspan></text><text id="SJK-1EIroQG"><tspan x="0" y="0" id="Hy5Wk48Ho7f">hair</tspan><tspan x="-58.3" y="48" id="r1sby4UrjQz">colours</tspan></text><text id="rJ3W1NUrjmG"><tspan x="0" y="0" id="rkpbJNLSiXf">theme</tspan><tspan x="-13.4" y="48" id="S1CZy4UroXG">colours</tspan></text></g><g id="rk1MkNUSjQf"><path class="st16" d="M895.3,375.3c-8.5,27.3-24,53.2-42.9,75.5c-8.2,9.7-17.5,18.5-27.9,25.9c-21.8,15.6-43.3,20.7-68.9,20.7&#10;&#9;&#9;c-20.6,0-41.3,0-61.9,0c-61.6,0-123.2,0-184.7,0c-61.2,0-122.3,0-183.5,0c-27.7,0-55.5,0-83.2,0c-1.8-0.4-3.4-1.1-5.5-1.1&#10;&#9;&#9;c-26.3-24-64.1-29.3-99.2-35.3c-35.1-5.9-73-15.3-94.6-43.7c-15.4-20.3-19.6-46.9-20.2-72.4c-0.7-31.4,3.5-63.6,17.4-91.8&#10;&#9;&#9;c13.9-28.2,38.4-52.1,68.7-60.5c14.1-3.9,29.3-4.5,42.5-10.7c15.4-7.2,26.4-21,36.7-34.6C236.1,84.4,323.5-33,415.6,27.6&#10;&#9;&#9;c19,12.5,33.4,31.9,54.1,41.3c21.8,9.9,47.4,7,70.2-0.2c22.8-7.2,44.3-18.3,67.3-24.9c50.8-14.6,107.8-5.5,151.5,24.3&#10;&#9;&#9;c6.7,4.6,13.2,9.7,17.9,16.4c17.4,25.3,2.3,62.1,16.3,89.4c7.4,14.3,21.6,23.6,34.5,33.2c22.8,17,43.6,37.3,57.8,61.8&#10;&#9;&#9;C905.4,303.5,906.1,340.5,895.3,375.3z" id="SyeGyVIHs7f"/><line class="st17" x1="912.7" y1="437.9" x2="768.7" y2="437.9" id="B1-fyNISsmf"/><line class="st17" x1="894.7" y1="460.9" x2="819.7" y2="460.9" id="SJGGJNUHsQf"/><line class="st17" x1="71.7" y1="198.9" x2="146.7" y2="198.9" id="rkmzk48So7f"/><line class="st17" x1="87.7" y1="186.9" x2="196.7" y2="186.9" id="S1Vz1VUHs7M"/><line class="st17" x1="867.7" y1="449.9" x2="680.2" y2="449.9" id="BkHz1EIHjQf"/></g><g id="BJUzy4LHsQM"><path class="st4" d="M329.4,414.5c10.2-15.6,20.6-31.7,24.5-50c4.3-20.2,0.3-41.3,2.7-61.9c4.6-39.5,35.2-74.8,73.7-84.8&#10;&#9;&#9;c4.2-1.1,8.6-1.9,12.8-0.7c4.3,1.2,7.7,4.3,10.9,7.4c17.1,16.9,65.3,68.5,38.5,92.3c-7.2,6.4-16.5,9.7-24.4,15.1&#10;&#9;&#9;c-10.9,7.5-12.2,19.5-18.3,30.5c-8.9,16.3-20.2,24.6-36.6,33.2c-17.1,9-29.4,19.3-36.7,37.3c-6.8,16.7-5.2,36-13.2,52.2&#10;&#9;&#9;c-6.8,13.7-17.4,12.3-32,12c-19.8-0.3-39.7,0-59.5,0c-1.6-3.7-0.3-8.1,1.7-11.6c11-19,25.9-35.4,40.7-51.6&#10;&#9;&#9;C319.9,427.8,324.8,421.5,329.4,414.5z" id="r1Pfy4UBsQz"/></g><g id="SyuMkNUSj7z"><g><g><path class="st11" d="M506.5,375.5h-87.9c-14.9,0-27-12.1-27-27V148.9c0-14.9,12.1-27,27-27h87.9c14.9,0,27,12.1,27,27v199.6&#10;&#9;&#9;&#9;&#9;C533.6,363.4,521.4,375.5,506.5,375.5z" id="ryjMyEIHoXf"/><circle class="st12" cx="462.6" cy="360.3" r="12" id="rJnMyV8Bs7z"/></g><rect x="405.9" y="142.2" class="st5" width="113.2" height="200.9" id="r1pMk4LSj7M"/></g><g><rect x="421.6" y="190.1" class="st8" width="82" height="92" id="Sky7yEIrsQf"/><path class="st18" d="M421.2,304.8c1.1-2.9,5.2-3.5,8.1-2.4c3,1,5.6,3,8.7,3.5c1.7,0.3,3.7-0.1,4.4-1.6c0.7-1.5-1.3-3.6-2.6-2.5&#10;&#9;&#9;&#9;c-1.4,1.3-0.1,3.8,1.7,4.3c1.8,0.5,3.7-0.3,5.4-1c1.7-0.8,3.6-1.6,5.4-1.2c2.3,0.5,3.8,2.8,6,3.4c3.9,1,7.1-3.5,11.1-3.7&#10;&#9;&#9;&#9;c1.8-0.1,3.5,0.8,5.3,1.3c1.7,0.5,3.8,0.7,5.2-0.6c1.3-1.2,0.7-4.1-1.2-4c-1,1.6,1.3,3.4,3.2,3s3.3-1.7,5.1-2.2&#10;&#9;&#9;&#9;c6-1.5,11.1,7.6,17,5.8" id="SyxXkVUrsQM"/></g><g id="HJ-XJEUSj7M"><g><path class="st19" d="M432.8,204.9c0,0.1,0,0.3,0,0.4c0,7.9,3.2,15.6,8.7,21.2c5.5,5.6,15.3,6.4,17.9,14.3&#10;&#9;&#9;&#9;&#9;c1.1,3.2,1.1,6.7,1.2,10.1c0,2.9,0.1,5.7,0.1,8.6c2.2-0.3,4.4-0.4,6.7-0.3c0-3.9,0.1-7.8,0.1-11.7c0-1.2,0-2.3,0.2-3.5&#10;&#9;&#9;&#9;&#9;c1.4-9,10.6-11.5,16.3-17c5.9-5.7,9.2-13.6,9.2-21.7c0-0.1,0-0.3,0-0.4H432.8z" id="rkm7JVISo7G"/><path class="st20" d="M435.3,211.5c-1.2-1.4-2.8-2.7-4.6-3.1c-1.8-0.4-4,0.2-4.9,1.8c-0.4,0.7-0.6,1.5-0.6,2.4&#10;&#9;&#9;&#9;&#9;c-0.6,4.9,0.5,10,2.9,14.2c0.4,0.6,0.8,1.3,1.3,1.8c1.7,1.5,4.5,1.1,6.2-0.4s2.5-3.8,2.7-6.1c0-0.4,0-0.7-0.2-1" id="HJ47JNUSimM"/><path class="st20" d="M489.8,211.5c1.2-1.4,2.8-2.7,4.6-3.1c1.8-0.4,4,0.2,4.9,1.8c0.4,0.7,0.6,1.5,0.6,2.4&#10;&#9;&#9;&#9;&#9;c0.6,4.9-0.5,10-2.9,14.2c-0.4,0.6-0.8,1.3-1.3,1.8c-1.7,1.5-4.5,1.1-6.2-0.4s-2.5-3.8-2.7-6.1c0-0.4,0-0.7,0.2-1" id="r1rmy4LSjXf"/></g><g><path class="st5" d="M483.6,271.4h-38.7c-0.1,0-0.2-0.1-0.2-0.2v-14.8c0-0.1,0.1-0.2,0.2-0.2h38.7c0.1,0,0.2,0.1,0.2,0.2v14.8&#10;&#9;&#9;&#9;&#9;C483.8,271.3,483.7,271.4,483.6,271.4z" id="Skv7kEUBimz"/><rect x="452.6" y="259.2" class="st19" width="23.4" height="9.1" id="SJ_mkELro7M"/></g></g></g><g id="HkFX148Homf"><path class="st4" d="M504.4,230.7c-1.4,16.6,4.8,32.8,4.8,49.5c0,7.5-1.1,15.8,2.4,22c3.6,6.5,10.7,8.3,17.1,9&#10;&#9;&#9;c3.6,0.4,7.3,0.6,10.6-1.2c8.3-4.5,9.4-18.1,9.2-29.2c-0.2-18.7-0.5-37.5-0.7-56.2c-0.1-8.2-0.3-16.8-4-23.6&#10;&#9;&#9;C529.9,175.5,506,213.4,504.4,230.7z" id="SJ9m1VLSsXf"/></g></svg>
</svg>