<?xml version="1.0" encoding="utf-8"?>
<!-- Generator: Adobe Illustrator 22.0.1, SVG Export Plug-In . SVG Version: 6.00 Build 0)  -->
<svg version="1.1" xmlns="http://www.w3.org/2000/svg" xmlns:xlink="http://www.w3.org/1999/xlink" x="0px" y="0px"
	 viewBox="0 0 925.1 497.4" style="enable-background:new 0 0 925.1 497.4;" xml:space="preserve">
<style type="text/css">
	.st0{fill:#FFD8A2;}
	.st1{fill:#E4BCA8;}
	.st2{fill:#FFE7E0;}
	.st3{fill:#FFE7DF;}
	.st4{fill:#FFDECA;stroke:#FFDECA;stroke-miterlimit:10;}
	.st5{fill:#C8807B;}
	.st6{fill:#FFE8E1;stroke:#FFE8E1;stroke-linecap:round;stroke-miterlimit:10;}
	.st7{fill:#EFBFA5;stroke:#EFBFA5;stroke-miterlimit:10;}
	.st8{fill:#B16667;stroke:#B16667;stroke-miterlimit:10;}
	.st9{fill:#984E56;}
	.st10{fill:#973741;stroke:#973741;stroke-linecap:round;stroke-linejoin:round;stroke-miterlimit:10;}
	.st11{fill:#8B001E;stroke:#8B001E;stroke-linecap:round;stroke-linejoin:round;stroke-miterlimit:10;}
	.st12{fill:#B06264;}
	.st13{fill:#FFBE9F;stroke:#FFBE9F;stroke-linecap:round;stroke-linejoin:round;stroke-miterlimit:10;}
	.st14{fill:#D0856C;stroke:#D0856C;stroke-miterlimit:10;}
	.st15{fill:#830027;stroke:#8B001E;stroke-linecap:round;stroke-linejoin:round;stroke-miterlimit:10;}
	.st16{fill:#F2DBD6;}
	.st17{fill:#FFFAF9;}
	.st18{fill:none;stroke:#D17C7C;stroke-linecap:round;stroke-linejoin:round;stroke-miterlimit:10;}
	.st19{fill:none;stroke:#BABABA;stroke-width:3;stroke-linecap:round;stroke-linejoin:round;stroke-miterlimit:10;}
	.st20{fill:#D0856C;stroke:#D0856C;stroke-linecap:round;stroke-linejoin:round;stroke-miterlimit:10;}
	.st21{fill:#B06264;stroke:#B06264;stroke-linecap:round;stroke-linejoin:round;stroke-miterlimit:10;}
	.st22{fill:none;stroke:#FFBE9F;stroke-linecap:round;stroke-linejoin:round;stroke-miterlimit:10;}
	.st23{fill:none;stroke:#FFE7DF;stroke-linecap:round;stroke-linejoin:round;stroke-miterlimit:10;}
	.st24{fill:#CCCCCC;stroke:#BABABA;stroke-linecap:round;stroke-linejoin:round;stroke-miterlimit:10;}
	.st25{fill:#EAEAEA;stroke:#BABABA;stroke-linecap:round;stroke-linejoin:round;stroke-miterlimit:10;}
	.st26{fill:none;stroke:#973741;stroke-width:0.75;stroke-linecap:round;stroke-linejoin:round;stroke-miterlimit:10;}
</style>
<g id="colours">
	<rect x="-380.8" y="-71.6" class="st0" width="47" height="97"/>
	<rect x="-312.8" y="-71.6" class="st1" width="47" height="97"/>
	<rect x="-244.8" y="-71.6" class="st2" width="47" height="97"/>
	<rect x="-380.8" y="40.4" class="st0" width="47" height="97"/>
	<rect x="-312.8" y="40.4" class="st1" width="47" height="97"/>
	<rect x="-244.8" y="40.4" class="st2" width="47" height="97"/>
	<rect x="-380.8" y="152.4" class="st0" width="47" height="97"/>
	<rect x="-312.8" y="152.4" class="st1" width="47" height="97"/>
	<rect x="-380.8" y="265.4" class="st0" width="47" height="97"/>
	<rect x="-312.8" y="265.4" class="st1" width="47" height="97"/>
	<rect x="-380.8" y="-71.6" class="st3" width="47" height="97"/>
	<rect x="-312.8" y="-71.6" class="st4" width="47" height="97"/>
	<rect x="-244.8" y="-71.6" class="st5" width="47" height="97"/>
	<rect x="-448.3" y="-71.1" class="st6" width="47" height="97"/>
	<rect x="-380.8" y="40.4" class="st7" width="47" height="97"/>
	<rect x="-312.8" y="40.4" class="st8" width="47" height="97"/>
	<rect x="-244.8" y="40.4" class="st9" width="47" height="97"/>
	<rect x="-448.3" y="40.9" class="st4" width="47" height="97"/>
	<rect x="-380.8" y="152.4" class="st10" width="47" height="97"/>
	<rect x="-312.8" y="152.4" class="st11" width="47" height="97"/>
	<rect x="-448.3" y="152.9" class="st12" width="47" height="97"/>
	<rect x="-380.8" y="265.4" class="st13" width="47" height="97"/>
	<rect x="-312.8" y="265.4" class="st14" width="47" height="97"/>
	<rect x="-448.3" y="265.9" class="st4" width="47" height="97"/>
	<rect x="-380.8" y="379.4" class="st15" width="47" height="97"/>
	<rect x="-448.3" y="379.9" class="st14" width="47" height="97"/>
	<text transform="matrix(1 0 0 1 -535.3853 77.7637)"><tspan x="0" y="0" style="font-family:'MyriadPro-Regular'; font-size:40px;">skin </tspan><tspan x="-47.6" y="48" style="font-family:'MyriadPro-Regular'; font-size:40px;">colours</tspan></text>
	<text transform="matrix(1 0 0 1 -581.3848 249.7637)"><tspan x="0" y="0" style="font-family:'MyriadPro-Regular'; font-size:40px;">clothes</tspan><tspan x="-1.6" y="48" style="font-family:'MyriadPro-Regular'; font-size:40px;">colours</tspan></text>
	<text transform="matrix(1 0 0 1 -524.6656 418.7637)"><tspan x="0" y="0" style="font-family:'MyriadPro-Regular'; font-size:40px;">hair</tspan><tspan x="-58.3" y="48" style="font-family:'MyriadPro-Regular'; font-size:40px;">colours</tspan></text>
	<text transform="matrix(1 0 0 1 -569.6255 -30.2363)"><tspan x="0" y="0" style="font-family:'MyriadPro-Regular'; font-size:40px;">theme</tspan><tspan x="-13.4" y="48" style="font-family:'MyriadPro-Regular'; font-size:40px;">colours</tspan></text>
</g>
<g id="background">
	<path class="st16" d="M898.5,375.3c-8.5,27.3-24,53.2-42.9,75.5c-8.2,9.7-17.5,18.5-27.9,25.9c-21.8,15.6-43.3,20.7-68.9,20.7
		c-20.6,0-41.3,0-61.9,0c-61.6,0-123.2,0-184.7,0c-61.2,0-122.3,0-183.5,0c-27.7,0-55.5,0-83.2,0c-1.8-0.4-3.4-1.1-5.5-1.1
		c-26.3-24-64.1-29.3-99.2-35.3c-35.1-5.9-73-15.3-94.6-43.7c-15.4-20.3-19.6-46.9-20.2-72.4c-0.7-31.4,3.5-63.6,17.4-91.8
		c13.9-28.2,38.4-52.1,68.7-60.5c14.1-3.9,29.3-4.5,42.5-10.7c15.4-7.2,26.4-21,36.7-34.6C239.3,84.4,326.7-33,418.8,27.6
		c19,12.5,33.4,31.9,54.1,41.3c21.8,9.9,47.4,7,70.2-0.2c22.8-7.2,44.3-18.3,67.3-24.9c50.8-14.6,107.8-5.5,151.5,24.3
		c6.7,4.6,13.2,9.7,17.9,16.4c17.4,25.3,2.3,62.1,16.3,89.4c7.4,14.3,21.6,23.6,34.5,33.2c22.8,17,43.6,37.3,57.8,61.8
		C908.6,303.5,909.3,340.5,898.5,375.3z"/>
</g>
<g id="ground">
	<g>
		<path class="st17" d="M245.6,496.9c-0.5-0.1-1-0.3-1.6-0.4c-1.1-0.3-2.3-0.6-3.7-0.7c-25.2-22.8-60.4-28.7-94.4-34.4l-4.9-0.8
			c-36.5-6.1-73.1-15.7-94.3-43.5c-8.7-11.4-14.4-25.6-17.5-43.2h869.2l-0.4,1.2c-7.9,25.6-22.7,51.6-42.8,75.3
			c-8.5,10.1-17.8,18.8-27.8,25.8c-20.2,14.4-40.7,20.6-68.6,20.6H245.6z"/>
		<path class="st17" d="M897.8,374.4l-0.2,0.6c-7.9,25.5-22.7,51.5-42.7,75.2c-8.5,10-17.8,18.7-27.7,25.8
			c-20.1,14.4-40.6,20.5-68.3,20.5H245.7c-0.5-0.1-1-0.2-1.6-0.4c-1.1-0.3-2.3-0.6-3.7-0.7c-25.3-22.8-60.5-28.7-94.5-34.4
			c-1.6-0.3-3.2-0.5-4.9-0.8c-36.4-6.1-72.9-15.6-94-43.3c-8.5-11.2-14.2-25.1-17.3-42.4H897.8 M899.1,373.4H28.7
			c2.7,15.9,7.9,31.2,17.7,44c21.5,28.3,59.5,37.8,94.6,43.7c35.1,5.9,72.8,11.3,99.2,35.3c2.2,0,3.7,0.7,5.5,1.1h513.3
			c25.6,0,47-5.1,68.9-20.7c10.3-7.4,19.6-16.2,27.8-25.9c18.8-22.3,34.4-48.2,42.9-75.5C898.7,374.6,898.9,374,899.1,373.4
			L899.1,373.4z"/>
	</g>
	<line class="st18" x1="216.7" y1="442.9" x2="428.7" y2="442.9"/>
	<line class="st18" x1="341.2" y1="456.9" x2="485.2" y2="456.9"/>
	<line class="st18" x1="553.2" y1="386.9" x2="697.2" y2="386.9"/>
	<line class="st18" x1="531.2" y1="409.9" x2="606.2" y2="409.9"/>
	<line class="st18" x1="8.2" y1="425.9" x2="83.2" y2="425.9"/>
	<line class="st18" x1="24.2" y1="413.9" x2="133.2" y2="413.9"/>
	<line class="st18" x1="790.2" y1="448.9" x2="865.2" y2="448.9"/>
	<line class="st18" x1="806.2" y1="436.9" x2="915.2" y2="436.9"/>
	<line class="st18" x1="585.2" y1="398.9" x2="808.2" y2="398.9"/>
</g>
<g id="traditional">
	<g id="crate">
		<g id="handle">
			<g>
				<line class="st19" x1="186.7" y1="363" x2="249.1" y2="267.8"/>
				<path class="st19" d="M244.2,262.6c-0.3-2.6,1.6-5.3,4.1-5.6c0.7-0.1,1.4,0,2.1,0.1c2.4,0.4,4.8,1.7,5.9,3.9
					c1.1,2.2,0.6,5.3-1.5,6.5C251.3,269.5,244.8,267,244.2,262.6z"/>
			</g>
		</g>
		<g id="books_1_">
			<g>
				
					<rect x="142.7" y="311.9" transform="matrix(-1.836970e-16 1 -1 -1.836970e-16 479.6176 188.1607)" class="st11" width="6" height="44"/>
				
					<rect x="142.2" y="304.4" transform="matrix(-1.836970e-16 1 -1 -1.836970e-16 472.1176 184.6607)" class="st20" width="3" height="48"/>
				
					<rect x="140.2" y="298.4" transform="matrix(-5.397344e-02 0.9985 -0.9985 -5.397344e-02 472.3512 197.2692)" class="st21" width="5" height="48"/>
				
					<rect x="87.8" y="302.5" transform="matrix(-0.7071 0.7071 -0.7071 -0.7071 390.3394 504.1508)" class="st11" width="6" height="60.9"/>
				
					<rect x="93.7" y="307.9" transform="matrix(-0.7071 0.7071 -0.7071 -0.7071 398.3927 494.7587)" class="st13" width="6" height="44"/>
				
					<rect x="101" y="292.1" transform="matrix(-0.7071 0.7071 -0.7071 -0.7071 405.3571 476.4302)" class="st21" width="6" height="60.2"/>
				
					<rect x="98.9" y="287.9" transform="matrix(-0.7071 0.7071 -0.7071 -0.7071 393.2505 459.5663)" class="st10" width="5.1" height="46.7"/>
				
					<rect x="96.1" y="301.7" transform="matrix(-0.7071 0.7071 -0.7071 -0.7071 396.0465 483.3518)" class="st20" width="3.7" height="44"/>
				<rect x="180.7" y="308.9" class="st21" width="6" height="44"/>
				<rect x="168.7" y="312.9" class="st13" width="6" height="44"/>
				<rect x="174.7" y="305.9" class="st10" width="6" height="44"/>
				
					<rect x="147.2" y="288.4" transform="matrix(0.1576 0.9875 -0.9875 0.1576 434.6187 115.3025)" class="st20" width="5" height="48"/>
				<g>
					<path class="st13" d="M96.5,295.6c4.8,0.4,9.3,2.8,12.7,6.2c3.3,3.5,5.5,8,6.5,12.7c-0.2-3.2,1.5-6.2,3.3-8.8
						c1.9-2.6,3.9-5.2,6.5-7.2c2.6-1.9,5.8-3.2,9-2.8c-3.7,3.3-7,7-10.1,10.9L116,315L96.5,295.6z"/>
					<path class="st22" d="M115.3,311.3c-0.4-3.4-0.3-6.8,0.8-10c1-3.2,3-6.2,5.7-8.1"/>
				</g>
				<g>
					
						<rect x="102.7" y="290.4" transform="matrix(-0.7071 0.7071 -0.7071 -0.7071 395.6982 450.6807)" class="st20" width="3.7" height="33.8"/>
					
						<rect x="124.7" y="290.4" transform="matrix(-0.7071 -0.7071 0.7071 -0.7071 -1.3221 614.0366)" class="st20" width="3.7" height="33.8"/>
				</g>
			</g>
		</g>
		<g id="body">
			<g>
				<path class="st21" d="M186.3,385.9H87.2c-1.4,0-2.5-1.1-2.5-2.5v-47.1c0-1.4,1.1-2.5,2.5-2.5h99.1c1.4,0,2.5,1.1,2.5,2.5v47.1
					C188.7,384.8,187.6,385.9,186.3,385.9z"/>
				<line class="st23" x1="83.7" y1="351.9" x2="189.7" y2="351.9"/>
				<line class="st23" x1="83.7" y1="368.9" x2="189.7" y2="368.9"/>
			</g>
		</g>
		<g id="wheels">
			<g>
				<circle class="st24" cx="99" cy="385.2" r="10.5"/>
				<circle class="st25" cx="99" cy="385.2" r="8.1"/>
			</g>
			<g>
				<circle class="st24" cx="173" cy="385.2" r="10.5"/>
				<circle class="st25" cx="173" cy="385.2" r="8.1"/>
			</g>
		</g>
	</g>
	<g id="face">
		<path class="st8" d="M328.8,96.7c10.9,2.2,19.8,12.7,19.2,25c-0.3,6.2-3.9,10-9.5,12.2c-3.3,1.3-7.1,3-8.1,6.4
			c-0.2,0.6-0.3,1.2,0,1.8c0.4,1.1,1.9,1.5,3.1,1.4c1.2-0.1,2.4-0.5,3.6-0.3c1.8,0.3,3.2,2,3.7,3.8c0.6,2.1,0.3,4.5-1.2,6.1
			c-2.6,2.8-5.6,0.7-8.6,0.5c-2.6-0.2-5.5,0.4-8-0.3c-3.6-0.9-7.3-3.1-8.6-6.8c3.6-1.8,6.2-5.5,6.6-9.6c0.8-7.1-4.4-13.2-7.5-19.6
			c-1.6-3.3-2.7-6.9-3.3-10.6c-0.3-1.9-0.4-4,0.8-5.6c0.6-0.9,1.6-1.5,2.5-2C318.6,96.4,323.9,95.7,328.8,96.7z"/>
	</g>
	<g id="hair">
		<g>
			<path class="st15" d="M318.8,91c0.4,0,0.8-0.1,1.1-0.3c0.8-0.4,1.5-1.1,2.2-1.7c2-1.8,4.6-3,7.3-2.8c5.8,0.4,9.9,8.8,6.6,13.6
				c-2.6,3.9-5.4,4.4-5.3,9.5c0.1,3.1,1.1,7.4-0.8,10.1c-1.4,1.9-3.4,2.7-4.9,4.4c-1.8,1.9-1.3,3.4-2.1,5.5
				c-1.5,3.7-6.4,5.6-9.9,3.4c-1.9-1.2-3.8-3.6-5.8-2.7c-0.7,0.3-1.2,0.9-1.8,1.2c-3.5,1.7-5.9-3.9-5.6-6.5c0.2-1.6,0.7-3.2,0.7-4.8
				c-0.1-3.9-1.7-7.2-1.5-11.1c0.1-3.2,0.7-5.9,2.4-8.5c0.8-1.3,1.4-2.3,2.9-3.1c1.7-0.8,3.5-0.9,5.1-1.9c1.9-1.2,3.1-3.5,5.3-4.1
				C315.9,90.7,317.4,91.1,318.8,91z"/>
			<path class="st15" d="M297.7,91.4c-1.5,1.4-2.3,3.5-4.1,4.6c-1.6,1-3.5,0.9-5.3,1.3s-3.7,1.8-3.4,3.6c0.2,2,2.8,2.9,3.5,4.9
				c0.9,2.5-1.7,5.7,0.1,7.6c0.5,0.5,1.1,0.7,1.6,1.2c0.8,0.7,1,1.8,1.6,2.7c0.9,1.6,2.8,2.5,4.6,2.4s3.5-1.4,4.2-3.1
				c0.3-0.7,0.4-1.5,0.8-2.3c1-2.1,3.7-3.1,4.8-5.2c1.2-2.4-0.1-4.9-0.2-7.3c-0.1-2.7,1.4-4.6,1.7-7.2
				C308.3,89.3,301.1,88.2,297.7,91.4z"/>
		</g>
	</g>
	<g id="arms">
		<path class="st8" d="M291.7,175.9c-3.3,6.6-6.7,13.2-10,19.8c-6.4,12.7-12.9,25.4-19.3,38.2c-4.1,8-9.1,16.1-12.4,24.5
			c-0.3,0.9-0.9,1.4-0.2,2.4c0.4,0.6,1.1,0.9,1.8,1c1.1,0.2,2.3-0.1,3.3-0.7c1.7-0.9,2.4-1.6,2.6-3.2c0.1-0.9,0-1.8,0.1-2.7
			c0.6-3.8,2.8-7.3,5.1-10.3c7-9,15-14,18-29c0,0,3-11,11-17s10-21,10-21L291.7,175.9z"/>
		<path class="st9" d="M354.2,150.6c5.3,5.1,10.7,10.3,16,15.4c10.3,9.9,20.5,19.8,30.8,29.6c3.9,3.8,8.1,7.4,12.1,11.1
			c3.1,2.9,9.9,7.5,7.7,12.5c-0.7,1.6-2.2,2.7-3.9,3c-0.4,0.1-0.9,0.1-1.2-0.1c-0.8-0.4-1-1.4-1.1-2.3c-1.4-9-9.9-13.8-17.2-17.7
			c-8-4.4-14.8-9.3-19.6-17.4c0,0-6.5-9.4-16-12.4s-16.4-16.5-16.4-16.5L354.2,150.6z"/>
	</g>
	<g id="feet_1_">
		<g id="back_4_">
			<polygon class="st9" points="268.9,371.6 262.6,392.9 268.2,392.9 279.8,368.7 			"/>
			<path class="st11" d="M267.2,390.2c-1-0.3-2-0.6-3-0.5c-1.8,0.2-3.2,1.8-3.7,3.5c-0.2,0.7-0.3,1.5-0.1,2.3c0.5,1.4,2.1,2,3.5,2.3
				c5.7,1.3,11.8,1,17,3.6c1.2,0.6,2.6,1.3,3.9,1c1.3-0.4,2.1-1.9,1.8-3.3c-0.2-1.3-1.2-2.5-2.3-3.2c-1.2-0.7-2.5-1.1-3.8-1.5
				C276,393.1,271.6,391.5,267.2,390.2z"/>
		</g>
		<g id="front_4_">
			<polygon class="st8" points="409.7,373.8 427,387.8 429.2,382.6 411.4,362.6 			"/>
			<path class="st10" d="M426.1,384.2c-0.8,0.6-1.7,1.2-2.2,2.1c-0.9,1.6-0.5,3.6,0.5,5.1c0.4,0.6,1,1.2,1.8,1.4
				c1.4,0.4,2.8-0.5,4-1.4c4.5-3.7,8-8.7,13.2-11.4c1.2-0.6,2.6-1.2,3.1-2.5c0.5-1.3-0.3-2.8-1.5-3.4c-1.2-0.7-2.7-0.6-4-0.1
				c-1.3,0.5-2.4,1.3-3.5,2.1C433.7,378.8,429.9,381.4,426.1,384.2z"/>
		</g>
	</g>
	<g id="trousers">
		<path id="back" class="st14" d="M302.2,256.4c-1.1,1.2-1.9,2.9-2.4,5c-3.9,15.8,0.3,33.4-7.8,48.1c-2.7,4.9-7,8.2-10.1,12.7
			c-3.5,5-6.6,10.2-9,15.8c-4.6,10.7-6.9,22.3-6.6,33.9c0,1.1,0.1,2.2,0.6,3.2c0.6,1,1.5,1.7,2.5,2.3c2,1.3,4.2,2.7,6.6,2.4
			c2.4-0.3,4.4-3.3,2.9-5.2c0,0,16.7-44.8,24.7-53.8s31-49,31-51s-8-26-8-26c-4.5,2.1-9,4.2-13.5,6.4
			C308.7,252.4,304.7,253.4,302.2,256.4z"/>
		<path id="front" class="st13" d="M299.3,237.4c-0.5,8.2-0.9,17.1,3.7,23.9c5.8,8.6,17.6,11.2,24.2,19.2c2.6,3.1,4.2,6.8,6.1,10.4
			c3.5,6.6,8.1,12.7,13.5,18c4.4,4.2,9.3,8,12.7,13.1c2.5,3.8,3.9,8.1,5.7,12.3c4.4,10.4,11.1,20.1,20.2,26.8
			c4.4,3.2,9.2,5.7,13.8,8.6c5,3.1,9.7,6.6,14.1,10.4c0.6,0.5,1.4,0.6,2,0.3c2.9-1.4,5.3-4,6.4-7.1c0.3-0.9-0.1-1.9-0.9-2.3
			c-1.8-0.9-3.4-2.2-4.6-3.7c0,0-40.9-44.9-42.9-57.9s-25-56-25-56s2-12-1-19S299.3,237.4,299.3,237.4z"/>
	</g>
	<g id="top">
		<path class="st11" d="M349.9,144.4c3.9,1.5,7.3,4.2,11.4,4.8c0.4,0.1,0.9,0.1,1.2,0.3c0.7,0.4,0.8,1.4,0.5,2.2s-0.9,1.3-1.5,1.9
			c-3,3.1-5.3,6.7-6.8,10.8c-0.6,1.6-1.4,3.6-3.1,3.9c-0.6,0.1-1.3-0.1-1.8-0.3c-4.3-1.6-6.7-6.1-8.5-10.3c-1-2.3-1.8-4.6-3.1-6.7
			c-0.7-1.3-3.8-4-3.4-5.4C336.1,141.7,347.4,143.5,349.9,144.4z"/>
		<path class="st10" d="M316.3,147.8c-0.6-0.3-1.1-0.7-1.8-0.8c-0.6-0.1-1.3,0.2-1.8,0.4c-6.4,2.4-13.1,5-17.3,10.4
			c-1.9,2.5-3.2,5.5-4.4,8.4c-2.4,5.6-4.7,11.3-7.1,16.9c4.7,5.2,11.3,8.6,18.2,9.4c0.6-4,1.8-7.9,3.6-11.6
			c2.5,8.4,0.3,17.4-1.9,25.8c-2.8,10.7-5.6,21.4-8.4,32.1c-0.3,1-0.5,2.2,0.1,3c0.6,0.8,1.7,0.9,2.6,0.9c4.7,0.2,9.4,0,14-0.7
			c4.3-0.6,8.5-1.7,12.8-1.7c8.4-0.1,16.6,3.4,25.1,3.1c1,0,2.1-0.2,3-0.6c1.8-1,2.6-3.2,2.5-5.3c-0.1-2-1-4-1.8-5.9
			c-3.9-9.5-5.8-19.9-5.5-30.2c0.3-9,2.1-17.8,2.7-26.8c0.5-8.9-0.4-18.4-5.2-25.9c-1.5-2.4-3.9-5.2-6.8-6.1
			c-3.5-1.1-3.9,1.4-6.3,3.4C328.1,149.8,321.3,150.8,316.3,147.8z"/>
	</g>
</g>
<g id="digital">
	<g id="crate_copy">
		<g id="handle_copy">
		</g>
		<g id="books_copy_1_">
		</g>
		<g id="body_copy">
		</g>
		<g id="wheels_copy">
		</g>
	</g>
	<g id="face_copy">
		<path class="st4" d="M727.1,177.2c-0.7,1.9-1.8,3.5-3.2,4.5c-1.4,1-3.1,1.4-4.8,1.8c-2,0.4-4.2,0.8-5.8,2.2
			c-1.4,1.3-2.8,5-0.3,5.8c2.1,0.6,4-3.1,6.5-2.6c1.9,0.4,2.7,2.8,2.7,4.8c0,1.4-0.3,2.8-1.1,3.9c-1,1.3-3.2,1.6-4.6,2.1
			c-2.1,0.8-3.8,1.6-6.2,1.8c-3.7,0.4-8.4-0.3-9.4-3.9c-0.9-2.9,1.5-6,0.9-9c-0.5-2.7-3.2-4.3-4.6-6.6c-1.5-2.4-1.5-5.4-1.2-8.3
			c0.4-5.1,1.3-10.1,2.7-15c0.8-2.6,1.7-5.2,3.5-7.2c4.3-4.9,14.7-6.3,20.4-3c2.9,1.7,4.7,4.9,5.4,8.2
			C729,161.3,729.4,171,727.1,177.2z"/>
	</g>
	<g id="arms_copy">
		<path class="st7" d="M741.9,206.4c0.5,7.4,1,7.8,1.5,15.2c1,14.2,2,28.4,3,42.7c0.6,8.4,0,19,4.6,26.4c1.1,1.7,2.4,3.8,1.4,5.5
			c-0.5,0.8-1.3,1.3-2.2,1.6c-1.1,0.4-2.3,0.6-3.3,0.3c-1.6-0.5-2.7-2.1-3.1-3.8s-0.2-3.4-0.1-5.1c0.5-9.2-2.3-16.5-5.1-25
			c-2.7-7.8-3.1-15.4-2-23.5c0,0,1.5-11.3-3.5-19.9c-5-8.6-1.1-16.2-1.1-16.2L741.9,206.4z"/>
	</g>
	<g id="feet_copy">
		<g id="back_5_">
			<polygon class="st7" points="651.4,418.1 645.1,439.4 650.7,439.4 662.3,415.2 			"/>
			<path class="st14" d="M649.7,436.7c-1-0.3-2-0.6-3-0.5c-1.8,0.2-3.2,1.8-3.7,3.5c-0.2,0.7-0.3,1.5-0.1,2.3c0.5,1.4,2.1,2,3.5,2.3
				c5.7,1.3,11.8,1,17,3.6c1.2,0.6,2.6,1.3,3.9,1c1.3-0.4,2.1-1.9,1.8-3.3s-1.2-2.5-2.3-3.2c-1.2-0.7-2.5-1.1-3.8-1.5
				C658.5,439.6,654.1,438,649.7,436.7z"/>
		</g>
		<g id="front_5_">
			<polygon class="st4" points="751.5,438.5 763.9,456.9 767.6,452.6 756.4,428.2 			"/>
			<path class="st13" d="M764.1,453.2c-1,0.3-2,0.6-2.7,1.3c-1.3,1.2-1.6,3.3-1,5c0.2,0.7,0.6,1.4,1.3,1.9c1.2,0.8,2.9,0.4,4.2-0.2
				c5.4-2.3,10.2-6,15.9-7c1.3-0.2,2.9-0.4,3.7-1.5c0.8-1.1,0.6-2.8-0.4-3.7s-2.4-1.3-3.8-1.3s-2.7,0.5-4,1
				C773,450.3,768.5,451.6,764.1,453.2z"/>
		</g>
	</g>
	<g id="trousers_copy">
		<path id="back_1_" class="st15" d="M689.4,305.6c-0.1,0.2-0.2,0.3-0.3,0.5c-4.2,7.5-6.3,16.1-8.4,24.4c-1.9,7.6-3.2,15.7-5.8,23.1
			c-2.2,6.2-6.9,9.6-10.5,15c-3.5,5-6.6,10.2-9,15.8c-4.6,10.7-6.9,22.3-6.6,33.9c0,1.1,0.1,2.2,0.6,3.2c0.6,1,1.5,1.7,2.5,2.3
			c2,1.3,4.2,2.7,6.6,2.4c2.4-0.3,4.4-3.3,2.9-5.2c0,0,16.7-44.8,24.7-53.8s31-49,31-51s-8-26-8-26
			C700.4,294.6,694.4,297.1,689.4,305.6z"/>
		<path id="front_1_" class="st10" d="M686.1,275.6c-1.4-0.1-4.1,13.7-4.3,15.3c-0.4,5.1,0.3,8.3,3,12.4
			c5.9,8.9,12.8,16.8,17.9,26.4c7.6,14.2,13,29.6,15.9,45.5c2.8,15.5,3.6,30.7,13.3,44c3.2,4.4,7.1,8.2,10.7,12.3
			c3.8,4.4,7.3,9.1,10.4,14.1c0.4,0.6,1.1,1,1.9,0.9c3.2-0.5,6.2-2.3,8.2-4.9c0.6-0.8,0.5-1.8-0.2-2.5c-1.4-1.4-2.6-3.1-3.3-4.9
			c0,0-25.9-54.9-24-67.9c1.9-13-7.4-60.9-7.4-60.9s5.4-10.9,4.6-18.5C732,279.3,686.2,275.6,686.1,275.6z"/>
	</g>
	<g id="top_copy">
		<path class="st14" d="M730.7,191.4c2,1.1,3.6,2.3,4.6,3.4c2.7,3,4.5,6.6,6.2,10.3c1.8,3.9,3.5,7.9,4.3,12.1c0.5,2.6,0.8,5.2,1,7.8
			c0.6,6.4,1.2,12.9,1.8,19.3c0.1,1.3,0.2,2.7-0.7,3.6c-0.7,0.7-1.9,0.9-2.9,0.9c-3.9,0.3-7.7,0.3-11.6,0.2
			c-1.2-2.6-0.8-5.6-0.7-8.5c0.2-7.7-3.5-13.2-5.4-20.2c-2.1-7.8-4.5-14.8-8.6-21.9c-1-1.8-4.6-3.9-3.2-6.4
			C718.4,187.1,725.6,188.7,730.7,191.4z"/>
		<path class="st14" d="M698.9,194c-0.8-0.3-1.5-0.7-2.4-0.9c-3.3-0.7-6.5,2-8.1,5c-1.9,3.6-2.5,7.9-2.6,12
			c-0.2,7.4,1.8,13.8,3,20.9c1.3,7.3-0.9,15.1-2.7,22.2c-2.8,10.7-5.6,21.4-8.4,32.1c-0.3,1-0.5,2.2,0.1,3c0.6,0.8,1.7,0.9,2.6,0.9
			c4.7,0.2,9.4,0,14-0.7c4.3-0.6,8.5-1.7,12.8-1.7c8.4-0.1,16.6,3.4,25.1,3.1c1,0,2.1-0.2,3-0.6c1.8-1,2.6-3.2,2.5-5.3
			c-0.1-2-1-4-1.8-5.9c-3.9-9.5-5.8-19.9-5.5-30.2c0.3-9,2.1-17.8,2.7-26.8c0.5-8.9-0.4-18.4-5.2-25.9c-1.5-2.4-3.9-5.2-6.8-6.1
			c-3.2-1-5.4,2.5-8,3.8c-4.2,2-9.2,3.1-13.6,1.4C699.5,194.3,699.2,194.2,698.9,194z"/>
		<path class="st13" d="M704.3,193.2c1,0.5,1.9,1,3,1.2c1.6,0.3,3.2,0,4.7,0.3c4.4,0.9,6.3,6.2,6.9,10.6c0.6,3.9,0.8,7.9,0.6,11.9
			c-0.2,6.8-1.5,13.7,0,20.3c0.7,3,1.9,5.8,2.9,8.7c3.6,11,2.9,22.9,2.2,34.5c-0.3,5-0.9,10.6-4.7,13.9c-2.6,2.3-6.3,2.9-9.8,2.5
			c-4.6-0.5-9.3-2.1-13.9-3c-6.1-1.2-12.2-2.7-18.2-4c-1.3-6.2,2-12.3,3.7-18.3c1.8-6.4,1.8-13.2,2.1-19.9
			c0.4-9.2,1.5-18.4,3.2-27.4c1.6-8.1,2.6-16,4.7-24c0.5-2.1,1.1-4.2,2.2-5.9c1.2-1.8,3.1-3.2,5.2-3.3
			C701,191.3,702.6,192.3,704.3,193.2z"/>
		<path class="st13" d="M723.2,189.7c3.4,1.9,5.7,5.3,7.3,8.9c4.3,9.3,4.5,19.9,3.9,30.1c-0.6,10.2-2.1,20.4-0.8,30.6
			c0.9,7.3,3.1,14.5,4.1,21.8c0.4,2.9,0.5,6-0.5,8.8c-1,2.8-3.4,5.2-6.3,5.5c1.2-9.2,1.7-18.7,0.2-27.9c-1.1-7.2-3.4-14.4-2.7-21.7
			c0.3-3.1,1.2-6.1,1.8-9.2c1.4-6.8,1.7-13.8,0.8-20.7c-0.8-6.2-2.6-12.3-5.9-17.6c-1.7-2.7-3.8-4.7-5.9-6.9
			C715.7,187.7,720.7,188.2,723.2,189.7z"/>
	</g>
	<g id="phone">
		<path class="st11" d="M754.7,242.2c0.9-0.7,1.6-1.4,2.3-2.2c0.4-0.4,0.8-1,0.5-1.5c-0.2-0.4-0.6-0.6-1.1-0.7
			c-1.8-0.5-3.7-1.1-5.6-1.2c-4.5-0.3-6.2,2.5-9.2,5.2c-1.6,1.4-3.1,2.9-4.7,4.2c0.3-0.2,3.2,0.9,3.7,1
			C745.3,247.7,750.9,245.3,754.7,242.2z"/>
		<path class="st26" d="M749.8,236.6c0.4-1.4,0.9-2.9,2-4c1.1-1.1,2.9-1.5,4.1-0.6c0.5,0.4,0.9,1.1,1.3,1.6c2.3,3,7.8,2.4,9.4-1
			c-0.8-1.3-3.1-0.6-3.6,0.9c-0.5,1.5,0.2,3,0.7,4.5c1.5,3.8,2.2,8.7-0.8,11.4c-1.1,1-2.5,1.5-3.5,2.4c-3.6,3.1-2.4,9.7-6.2,12.5
			c-1.9,1.4-4.6,1.3-6.9,0.8c-2.3-0.5-4.6-1.3-7-1.2s-4.9,1.5-5.4,3.9s2.5,4.8,4.4,3.4c1.3-1.2-0.3-3.5-2.1-3.6
			c-1.8,0-3.2,1.2-4.7,2.3c-3.6,2.8-8.1,4.7-12.6,4.3c-4.5-0.4-9-3.7-9.7-8.1c-1.3-7.8,8.2-14.6,6.1-22.2
			c-1.7-6.1-10.4-9.2-10.2-15.5c0.1-5.8,7.6-9.2,8.3-14.9c0.5-4.9-4.1-8.8-5.7-13.5c-1.3-4-0.4-8.3,0.5-12.4s1.6-8.6-0.1-12.4
			s-6.9-6.3-10.3-3.8"/>
	</g>
	<g id="arm_front">
		<path class="st4" d="M679.4,235.3c0.4,8.2,1.2,16.3,2.4,24.4c0.1,1,0.4,2,1.1,2.6c0.6,0.4,1.4,0.5,2.1,0.4
			c5.1-0.1,10.1-1.3,15.1-2.6c8.3-2,16.5-4.1,24.8-6.1c7.6-1.9,15.9-3,22.9-6.5c0.9-0.4,1.8-1.2,1.5-2.1c-1.6-1-3.4-1.9-5.2-2.6
			c-4.2-1.6-6.6-0.2-10.2,1.9c-5.7,3.3-12.8,2.1-19.4,2c-6.9-0.1-13.9,1.2-20.3,3.9c0.8-5.6-0.6-11.5-4-16.1
			C687.1,233.8,682.4,234.1,679.4,235.3z"/>
		<path class="st14" d="M696.6,194.1c-1.3-0.8-2.8-1.2-4.5-0.8c-1.7,0.5-3.2,1.6-4.4,2.8c-9.7,9.4-10,25-10.2,37.6
			c-0.1,8.8,1.2,17.5,3.8,25.9c0.4,1.4,1,2.9,2.2,3.7c1,0.6,2.1,0.7,3.3,0.8c7.1,0.3,14.3-0.9,20.9-3.7c0.3-2.6,0-5.3-0.8-7.8
			c-0.7-2.3-2-4.5-4.1-5.6s-5.1-0.9-6.4,1.1c-0.2-3.6-0.4-7.1-0.7-10.7c-0.1-2.1-0.3-4.3,0.1-6.4c1.1-5.7,5.2-10.3,6.5-15.9
			c1.3-5.9-0.4-13.1-3.2-18.3C698.4,195.7,697.6,194.8,696.6,194.1z"/>
	</g>
	<g id="hair_copy">
		<path class="st15" d="M700.4,164.9c0.2-0.8,0.6-1.6,1-2.3c0.7-1.1,2-1.9,3.3-1.8c0.8,0.1,1.6,0.5,2.4,0.7c1.7,0.3,3.4-0.7,4.3-2.1
			c1.9-2.7,0.5-4.7,1-7.4c0.4-1.8,2.8-2.3,4.4-1.6c1.7,0.7,2.8,2.2,4.2,3.4c1.4,1.2,3.3,2.1,4.9,1.4c0.9-0.4,1.5-1.3,2-2.1
			c1-2,1.3-4.4,0.6-6.6c-0.7-2.1-2.4-4-4.6-4.6c-1.2-0.3-2.4-0.4-3.6-0.5c-5.8-0.8-10.1-6.9-16.2-6.2c-4.5,0.5-7.5,5-8.8,9.4
			c-0.5,1.6-0.9,3.3-2,4.5c-1,1-2.4,1.5-3.5,2.3c-3,1.9-4.5,5.5-4.4,9c0,1.7,0.4,3.5,1.2,5c0.8,1.6,2.7,2.4,2.1,4.4
			c-0.4,1.4-1.5,2.6-2.1,3.9c-0.7,1.3-0.8,3.2,0.5,4.1c0.9,0.7,2.2,0.4,3.3,0.7c2.3,0.6,5.5,6.2,8.3,4.3c0.6-0.4,0.9-1.1,1-1.8
			c0.3-1.1,0.3-2.2,0.1-3.4c-0.1-0.6-0.3-1.3-0.3-1.9c0-1.1,0.6-1.4,1-2.3c0.4-0.8,0.4-1.9,0.3-2.8
			C700.6,168.7,699.8,166.8,700.4,164.9z"/>
	</g>
</g>
</svg>
