<svg version="1.1" xmlns="http://www.w3.org/2000/svg" xmlns:xlink="http://www.w3.org/1999/xlink" x="0px" y="0px" viewBox="0 0 925.1 497.4" style="enable-background:new 0 0 925.1 497.4;" id="rJDg-CDBjQG">
    <style>
        #rJFlW0wSsQf{fill: #FFD8A2;}#S1cgbCwBimf{fill: #E4BCA8;}#HkoxbAvrjXM{fill: #FFE7E0;}#BJ3xbRPSomf{fill: #FFD8A2;}#ry6eWADBoQz{fill: #E4BCA8;}#HyReZ0vSiXM{fill: #FFE7E0;}#rkkbbRwSjXM{fill: #FFD8A2;}#SJgbZADBi7M{fill: #E4BCA8;}#SkbWbCvSjmf{fill: #FFD8A2;}#ryzZbAPBjmG{fill: #E4BCA8;}#Hk7-ZCDBj7z{fill: #FFE7DF;}#S1NZbRDHomz{fill: #FFDECA;stroke: #FFDECA;stroke-miterlimit: 10;}#S1rZW0vBoXM{fill: #C8807B;}#B1IWZAPHoXf{fill: #FFE8E1;stroke: #FFE8E1;stroke-linecap: round;stroke-miterlimit: 10;}#HywZZRDSsmf{fill: #EFBFA5;stroke: #EFBFA5;stroke-miterlimit: 10;}#r1OW-RvBomz{fill: #B16667;stroke: #B16667;stroke-miterlimit: 10;}#H1tWWRPBsXz{fill: #984E56;}#Hy9Z-0wrjXM{fill: #FFDECA;stroke: #FFDECA;stroke-miterlimit: 10;}#Hys-W0DHiQf{fill: #973741;stroke: #973741;stroke-linecap: round;stroke-linejoin: round;stroke-miterlimit: 10;}#ry2W-CvBimM{fill: #8B001E;stroke: #8B001E;stroke-linecap: round;stroke-linejoin: round;stroke-miterlimit: 10;}#rkpbZRvriXz{fill: #B06264;}#ry0ZZ0vBjXz{fill: #FFBE9F;stroke: #FFBE9F;stroke-linecap: round;stroke-linejoin: round;stroke-miterlimit: 10;}#r1yGZCDSjQz{fill: #D0856C;stroke: #D0856C;stroke-miterlimit: 10;}#B1efWCwHiXz{fill: #FFDECA;stroke: #FFDECA;stroke-miterlimit: 10;}#r1WfWRDHiQG{fill: #830027;stroke: #8B001E;stroke-linecap: round;stroke-linejoin: round;stroke-miterlimit: 10;}#r1GGZRwHsQz{fill: #D0856C;stroke: #D0856C;stroke-miterlimit: 10;}#SJQM-0PriQG{transform:  matrix(1,0,0,1,-535.3853,77.7637);}#rkEGZ0Dro7G{font-family: 'MyriadPro-Regular';font-size: 40px;}#HyHf-RvSi7f{font-family: 'MyriadPro-Regular';font-size: 40px;}#rkIfWRwHo7M{transform:  matrix(1,0,0,1,-581.3848,249.7637);}#ByDM-RDrsmG{font-family: 'MyriadPro-Regular';font-size: 40px;}#HJ_z-0vriQf{font-family: 'MyriadPro-Regular';font-size: 40px;}#rkKfbAwHomz{transform:  matrix(1,0,0,1,-524.6656,418.7637);}#SJcMZCvSj7f{font-family: 'MyriadPro-Regular';font-size: 40px;}#HyoMbCvrjQG{font-family: 'MyriadPro-Regular';font-size: 40px;}#HynG-RvriXf{transform:  matrix(1,0,0,1,-569.6255,-30.2363);}#ryazZCwrimG{font-family: 'MyriadPro-Regular';font-size: 40px;}#rkRMb0DHimf{font-family: 'MyriadPro-Regular';font-size: 40px;}#HklQZAvriXf{fill: #FFDECA;stroke: #FFDECA;stroke-miterlimit: 10;}#SJMX-RDBjmG{fill: #FFFAF9;stroke: #FFFAF9;stroke-linecap: round;stroke-miterlimit: 10;}#HkXQ-CPBsmM{fill: none;stroke: #D17C7C;stroke-linecap: round;stroke-linejoin: round;stroke-miterlimit: 10;}#ryNmZRwBomG{fill: none;stroke: #D17C7C;stroke-linecap: round;stroke-linejoin: round;stroke-miterlimit: 10;}#BJSmb0PBiQG{fill: none;stroke: #D17C7C;stroke-linecap: round;stroke-linejoin: round;stroke-miterlimit: 10;}#rkIQ-Rwri7f{fill: none;stroke: #D17C7C;stroke-linecap: round;stroke-linejoin: round;stroke-miterlimit: 10;}#Bkv7ZAvSjQG{fill: none;stroke: #D17C7C;stroke-linecap: round;stroke-linejoin: round;stroke-miterlimit: 10;}#SJ_mWRDBi7M{fill: none;stroke: #D17C7C;stroke-linecap: round;stroke-linejoin: round;stroke-miterlimit: 10;}#S1Ym-0DHoXz{fill: none;stroke: #D17C7C;stroke-linecap: round;stroke-linejoin: round;stroke-miterlimit: 10;}#BJqmW0PriXf{fill: none;stroke: #D17C7C;stroke-linecap: round;stroke-linejoin: round;stroke-miterlimit: 10;}#BkjQZ0PHiXf{fill: none;stroke: #D17C7C;stroke-linecap: round;stroke-linejoin: round;stroke-miterlimit: 10;}#HyAQWRwSjQG{fill: #FFFAF9;stroke: #FFFAF9;stroke-linecap: round;stroke-miterlimit: 10;}#H1yV-0vri7G{fill: #B16667;stroke: #B16667;stroke-miterlimit: 10;}#H1gVb0wSsmz{fill: none;stroke: #FFDECA;stroke-miterlimit: 10;}#HyWEW0vBoQf{fill: none;stroke: #FFDECA;stroke-miterlimit: 10;}#HyzEbAwSjXG{fill: none;stroke: #FFDECA;stroke-miterlimit: 10;}#ry7EZRwSjXz{fill: none;stroke: #FFDECA;stroke-miterlimit: 10;}#SkS4-AwrjQM{fill: #FFE8E1;stroke: #FFE8E1;stroke-linecap: round;stroke-linejoin: round;stroke-miterlimit: 10;}#H1DEW0PHomf{fill: #B16667;stroke: #B16667;stroke-miterlimit: 10;}#ry5VbADBjQM{fill: #830027;stroke: #8B001E;stroke-linecap: round;stroke-linejoin: round;stroke-miterlimit: 10;}#H1oNb0vHjmf{fill: #830027;stroke: #8B001E;stroke-linecap: round;stroke-linejoin: round;stroke-miterlimit: 10;}#ByT4-0PHjXM{fill: #B16667;stroke: #B16667;stroke-miterlimit: 10;}#rJCVbAvBiQM{fill: #984E56;}#rk-rZAvHoXM{fill: #984E56;}#r1zSWCPBoQz{fill: #8B001E;stroke: #8B001E;stroke-linecap: round;stroke-linejoin: round;stroke-miterlimit: 10;}#S1VH-APHjQz{fill: #B16667;stroke: #B16667;stroke-miterlimit: 10;}#rJBBb0wSi7f{fill: #973741;stroke: #973741;stroke-linecap: round;stroke-linejoin: round;stroke-miterlimit: 10;}#BJwH-CwBj7M{fill: #D0856C;stroke: #D0856C;stroke-miterlimit: 10;}#SJOBbAPrsXM{fill: #FFBE9F;stroke: #FFBE9F;stroke-linecap: round;stroke-linejoin: round;stroke-miterlimit: 10;}#Sy9HZ0DHjXM{fill: #8B001E;stroke: #8B001E;stroke-linecap: round;stroke-linejoin: round;stroke-miterlimit: 10;}#ByiB-0PBo7z{fill: #973741;stroke: #973741;stroke-linecap: round;stroke-linejoin: round;stroke-miterlimit: 10;}

	@keyframes SkS4-AwrjQMAnimation {
		0% {
			transform: translate(0px, 0px);
		}
		50% {
			transform: translate(10px, 0px);
		}
		66.67% {
			transform: translate(6.67px, 0px);
		}
		76.67% {
			transform: translate(8px, 0px);
		}
		100% {
			transform: translate(0px, 0px);
		}
	}

	#SkS4-AwrjQM {
		transform-origin: 50% 50% !important;
		animation: SkS4-AwrjQMAnimation 3s infinite linear;
	}



	@keyframes rJCVbAvBiQMAnimation {
		0% {
			transform: translate(0px, 0px);
		}
		50% {
			transform: translate(10px, 0px);
		}
		66.67% {
			transform: translate(6.67px, 0px);
		}
		76.67% {
			transform: translate(8px, 0px);
		}
		100% {
			transform: translate(0px, 0px);
		}
	}

	#rJCVbAvBiQM {
		transform-origin: 50% 50% !important;
		animation: rJCVbAvBiQMAnimation 3s infinite linear;
	}



	@keyframes Sy9HZ0DHjXMAnimation {
		0% {
			transform: translate(0px, 0px);
		}
		50% {
			transform: translate(5px, 0px);
		}
		66.67% {
			transform: translate(3.33px, 0px);
		}
		76.67% {
			transform: translate(6px, 0px);
		}
		100% {
			transform: translate(0px, 0px);
		}
	}

	#Sy9HZ0DHjXM {
		transform-origin: 50% 50% !important;
		animation: Sy9HZ0DHjXMAnimation 3s infinite linear;
	}
    </style>
    <svg version="1.1" xmlns="http://www.w3.org/2000/svg" xmlns:xlink="http://www.w3.org/1999/xlink" x="0px" y="0px" viewBox="0 0 925.1 497.4" style="enable-background:new 0 0 925.1 497.4;" xml:space="preserve" id="rJDg-CDBjQG"><g id="Bkde-0wroQf"><rect x="-380.8" y="-71.6" class="st0" width="47" height="97" id="rJFlW0wSsQf"/><rect x="-312.8" y="-71.6" class="st1" width="47" height="97" id="S1cgbCwBimf"/><rect x="-244.8" y="-71.6" class="st2" width="47" height="97" id="HkoxbAvrjXM"/><rect x="-380.8" y="40.4" class="st0" width="47" height="97" id="BJ3xbRPSomf"/><rect x="-312.8" y="40.4" class="st1" width="47" height="97" id="ry6eWADBoQz"/><rect x="-244.8" y="40.4" class="st2" width="47" height="97" id="HyReZ0vSiXM"/><rect x="-380.8" y="152.4" class="st0" width="47" height="97" id="rkkbbRwSjXM"/><rect x="-312.8" y="152.4" class="st1" width="47" height="97" id="SJgbZADBi7M"/><rect x="-380.8" y="265.4" class="st0" width="47" height="97" id="SkbWbCvSjmf"/><rect x="-312.8" y="265.4" class="st1" width="47" height="97" id="ryzZbAPBjmG"/><rect x="-380.8" y="-71.6" class="st3" width="47" height="97" id="Hk7-ZCDBj7z"/><rect x="-312.8" y="-71.6" class="st4" width="47" height="97" id="S1NZbRDHomz"/><rect x="-244.8" y="-71.6" class="st5" width="47" height="97" id="S1rZW0vBoXM"/><rect x="-448.3" y="-71.1" class="st6" width="47" height="97" id="B1IWZAPHoXf"/><rect x="-380.8" y="40.4" class="st7" width="47" height="97" id="HywZZRDSsmf"/><rect x="-312.8" y="40.4" class="st8" width="47" height="97" id="r1OW-RvBomz"/><rect x="-244.8" y="40.4" class="st9" width="47" height="97" id="H1tWWRPBsXz"/><rect x="-448.3" y="40.9" class="st4" width="47" height="97" id="Hy9Z-0wrjXM"/><rect x="-380.8" y="152.4" class="st10" width="47" height="97" id="Hys-W0DHiQf"/><rect x="-312.8" y="152.4" class="st11" width="47" height="97" id="ry2W-CvBimM"/><rect x="-448.3" y="152.9" class="st12" width="47" height="97" id="rkpbZRvriXz"/><rect x="-380.8" y="265.4" class="st13" width="47" height="97" id="ry0ZZ0vBjXz"/><rect x="-312.8" y="265.4" class="st14" width="47" height="97" id="r1yGZCDSjQz"/><rect x="-448.3" y="265.9" class="st4" width="47" height="97" id="B1efWCwHiXz"/><rect x="-380.8" y="379.4" class="st15" width="47" height="97" id="r1WfWRDHiQG"/><rect x="-448.3" y="379.9" class="st14" width="47" height="97" id="r1GGZRwHsQz"/><text id="SJQM-0PriQG"><tspan x="0" y="0" id="rkEGZ0Dro7G">skin </tspan><tspan x="-47.6" y="48" id="HyHf-RvSi7f">colours</tspan></text><text id="rkIfWRwHo7M"><tspan x="0" y="0" id="ByDM-RDrsmG">clothes</tspan><tspan x="-1.6" y="48" id="HJ_z-0vriQf">colours</tspan></text><text id="rkKfbAwHomz"><tspan x="0" y="0" id="SJcMZCvSj7f">hair</tspan><tspan x="-58.3" y="48" id="HyoMbCvrjQG">colours</tspan></text><text id="HynG-RvriXf"><tspan x="0" y="0" id="ryazZCwrimG">theme</tspan><tspan x="-13.4" y="48" id="rkRMb0DHimf">colours</tspan></text></g><g id="SyyXWAwHjXM"><path class="st4" d="M898.5,375.3c-8.5,27.3-24,53.2-42.9,75.5c-8.2,9.7-17.5,18.5-27.9,25.9c-21.8,15.6-43.3,20.7-68.9,20.7&#10;&#9;&#9;c-20.6,0-41.3,0-61.9,0c-61.6,0-123.2,0-184.7,0c-61.2,0-122.3,0-183.5,0c-27.7,0-55.5,0-83.2,0c-1.8-0.4-3.4-1.1-5.5-1.1&#10;&#9;&#9;c-26.3-24-64.1-29.3-99.2-35.3c-35.1-5.9-73-15.3-94.6-43.7c-15.4-20.3-19.6-46.9-20.2-72.4c-0.7-31.4,3.5-63.6,17.4-91.8&#10;&#9;&#9;c13.9-28.2,38.4-52.1,68.7-60.5c14.1-3.9,29.3-4.5,42.5-10.7c15.4-7.2,26.4-21,36.7-34.6C239.3,84.4,326.7-33,418.8,27.6&#10;&#9;&#9;c19,12.5,33.4,31.9,54.1,41.3c21.8,9.9,47.4,7,70.2-0.2c22.8-7.2,44.3-18.3,67.3-24.9c50.8-14.6,107.8-5.5,151.5,24.3&#10;&#9;&#9;c6.7,4.6,13.2,9.7,17.9,16.4c17.4,25.3,2.3,62.1,16.3,89.4c7.4,14.3,21.6,23.6,34.5,33.2c22.8,17,43.6,37.3,57.8,61.8&#10;&#9;&#9;C908.6,303.5,909.3,340.5,898.5,375.3z" id="HklQZAvriXf"/></g><g id="r1bmW0DBiXG"><path class="st16" d="M899.1,373.4c-0.2,0.6-0.4,1.2-0.6,1.9c-8.5,27.3-24,53.2-42.9,75.5c-8.2,9.7-17.5,18.5-27.8,25.9&#10;&#9;&#9;c-21.8,15.6-43.3,20.7-68.9,20.7H245.6c-1.8-0.4-3.4-1.1-5.5-1.1c-26.4-24-64.1-29.3-99.2-35.3c-35.1-5.9-73-15.3-94.6-43.7&#10;&#9;&#9;c-9.7-12.8-15-28.1-17.7-44H899.1z" id="SJMX-RDBjmG"/><line class="st17" x1="216.7" y1="442.9" x2="428.7" y2="442.9" id="HkXQ-CPBsmM"/><line class="st17" x1="341.2" y1="456.9" x2="485.2" y2="456.9" id="ryNmZRwBomG"/><line class="st17" x1="553.2" y1="386.9" x2="697.2" y2="386.9" id="BJSmb0PBiQG"/><line class="st17" x1="531.2" y1="409.9" x2="606.2" y2="409.9" id="rkIQ-Rwri7f"/><line class="st17" x1="8.2" y1="425.9" x2="83.2" y2="425.9" id="Bkv7ZAvSjQG"/><line class="st17" x1="24.2" y1="413.9" x2="133.2" y2="413.9" id="SJ_mWRDBi7M"/><line class="st17" x1="790.2" y1="448.9" x2="865.2" y2="448.9" id="S1Ym-0DHoXz"/><line class="st17" x1="806.2" y1="436.9" x2="915.2" y2="436.9" id="BJqmW0PriXf"/><line class="st17" x1="585.2" y1="398.9" x2="808.2" y2="398.9" id="BkjQZ0PHiXf"/></g><g id="SJhQbCDBjXf"><g><path class="st16" d="M763.9,271.6H408.1c-7.2,0-13.1-5.9-13.1-13.1V71.7c0-7.2,5.9-13.1,13.1-13.1h355.9&#10;&#9;&#9;&#9;c7.2,0,13.1,5.9,13.1,13.1v186.9C777,265.8,771.1,271.6,763.9,271.6z" id="HyAQWRwSjQG"/><path class="st8" d="M747.5,256.3H424.4c-3.8,0-6.9-3.1-6.9-6.9V80.8c0-3.8,3.1-6.9,6.9-6.9h323.1c3.8,0,6.9,3.1,6.9,6.9v168.6&#10;&#9;&#9;&#9;C754.5,253.2,751.4,256.3,747.5,256.3z" id="H1yV-0vri7G"/></g><path class="st18" d="M469.8,113.9c2-6.1,8.6-10.2,15-9.6c7.7,0.8,13.4,7.6,20.7,10.2c5.4,1.9,11.6,1.4,16.6-1.4&#10;&#9;&#9;c3.2-1.8,6.2-5.4,5.1-9c-1.4-4.7-9.4-4.5-11.4,0.1s1.6,10.1,6.3,11.4c4.7,1.3,9.9-0.7,13.6-3.9c3.9-3.4,6.9-8.1,11.7-10&#10;&#9;&#9;c7.5-3.1,15.7,2,22.3,6.8s14.9,9.8,22.3,6.5" id="H1gVb0wSsmz"/><path class="st18" d="M604.7,147c4.7-4,9.9-8.2,16.1-8.4c6.1-0.2,11.5,3.6,17,6.1c7.9,3.7,17.1,5.1,25.5,2.9&#10;&#9;&#9;c12.8-3.3,24.7-14.3,37.4-10.5c7.9,2.4,14.5,10.5,22.6,8.8" id="HyWEW0vBoQf"/><path class="st18" d="M473.3,149.4c7.2-3.3,14.8,3.2,22.5,4.9c11.9,2.7,23.5-6.1,35.7-6.5" id="HyzEbAwSjXG"/><path class="st18" d="M516.7,207.7c7.1-5.4,16.6-7.4,25.3-5.5c5.5,1.2,10.8,4,16.4,3.5c5.6-0.5,11.1-6.7,8.2-11.4&#10;&#9;&#9;c-1.2,0-2.5,0-3.7,0c-3.1,5.4,2,13.4,8.2,12.8c4.1-0.4,7.3-3.6,10.8-5.7c7.8-4.7,20.6-2.3,22.3,6.6c0.4,2.3-1.2,5.6-3.4,4.6&#10;&#9;&#9;c-0.2-3.1,3.5-5.2,6.6-5.2c3.1,0,6.2,1.4,9.3,1.3c8-0.2,13.6-8.9,21.5-10c10-1.4,18.7,9.7,28.6,7.8" id="ry7EZRwSjXz"/></g><g id="Bk44WAwBimG"><path id="SkS4-AwrjQM" class="st19" d="M425.1,149.2c0-1,0.8-1.7,1.8-1.7l29.8,0.5l4.6,2.4l-4.7,1.1l-29.8-0.5&#10;&#9;&#9;C425.9,151,425.1,150.2,425.1,149.2z"/><g id="Hk8EZ0PrimM"><path class="st8" d="M353.8,96.7c10.9,2.2,19.8,12.7,19.2,25c-0.3,6.2-3.9,10-9.5,12.2c-3.3,1.3-7.1,3-8.1,6.4&#10;&#9;&#9;&#9;c-0.2,0.6-0.3,1.2,0,1.8c0.4,1.1,1.9,1.5,3.1,1.4c1.2-0.1,2.4-0.5,3.6-0.3c1.8,0.3,3.2,2,3.7,3.8c0.6,2.1,0.3,4.5-1.2,6.1&#10;&#9;&#9;&#9;c-2.6,2.8-5.6,0.7-8.6,0.5c-2.6-0.2-5.5,0.4-8-0.3c-3.6-0.9-7.3-3.1-8.6-6.8c3.6-1.8,6.2-5.5,6.6-9.6c0.8-7.1-4.4-13.2-7.5-19.6&#10;&#9;&#9;&#9;c-1.6-3.3-2.7-6.9-3.3-10.6c-0.3-1.9-0.4-4,0.8-5.6c0.6-0.9,1.6-1.5,2.5-2C343.6,96.4,348.9,95.7,353.8,96.7z" id="H1DEW0PHomf"/></g><g id="HJuE-ADHoQz"><g><path class="st15" d="M343.8,91c0.4,0,0.8-0.1,1.1-0.3c0.8-0.4,1.5-1.1,2.2-1.7c2-1.8,4.6-3,7.3-2.8c5.8,0.4,9.9,8.8,6.6,13.6&#10;&#9;&#9;&#9;&#9;c-2.6,3.9-5.4,4.4-5.3,9.5c0.1,3.1,1.1,7.4-0.8,10.1c-1.4,1.9-3.4,2.7-4.9,4.4c-1.8,1.9-1.3,3.4-2.1,5.5&#10;&#9;&#9;&#9;&#9;c-1.5,3.7-6.4,5.6-9.9,3.4c-1.9-1.2-3.8-3.6-5.8-2.7c-0.7,0.3-1.2,0.9-1.8,1.2c-3.5,1.7-5.9-3.9-5.6-6.5c0.2-1.6,0.7-3.2,0.7-4.8&#10;&#9;&#9;&#9;&#9;c-0.1-3.9-1.7-7.2-1.5-11.1c0.1-3.2,0.7-5.9,2.4-8.5c0.8-1.3,1.4-2.3,2.9-3.1c1.7-0.8,3.5-0.9,5.1-1.9c1.9-1.2,3.1-3.5,5.3-4.1&#10;&#9;&#9;&#9;&#9;C340.9,90.7,342.4,91.1,343.8,91z" id="ry5VbADBjQM"/><path class="st15" d="M322.7,91.4c-1.5,1.4-2.3,3.5-4.1,4.6c-1.6,1-3.5,0.9-5.3,1.3s-3.7,1.8-3.4,3.6c0.2,2,2.8,2.9,3.5,4.9&#10;&#9;&#9;&#9;&#9;c0.9,2.5-1.7,5.7,0.1,7.6c0.5,0.5,1.1,0.7,1.6,1.2c0.8,0.7,1,1.8,1.6,2.7c0.9,1.6,2.8,2.5,4.6,2.4s3.5-1.4,4.2-3.1&#10;&#9;&#9;&#9;&#9;c0.3-0.7,0.4-1.5,0.8-2.3c1-2.1,3.7-3.1,4.8-5.2c1.2-2.4-0.1-4.9-0.2-7.3c-0.1-2.7,1.4-4.6,1.7-7.2&#10;&#9;&#9;&#9;&#9;C333.3,89.3,326.1,88.2,322.7,91.4z" id="H1oNb0vHjmf"/></g></g><g id="B134ZAPrs7M"><path class="st8" d="M316.7,175.9c-3.3,6.6-6.7,13.2-10,19.8c-6.4,12.7-12.9,25.4-19.3,38.2c-4.1,8-9.1,16.1-12.4,24.5&#10;&#9;&#9;&#9;c-0.3,0.9-0.9,1.4-0.2,2.4c0.4,0.6,1.1,0.9,1.8,1c1.1,0.2,2.3-0.1,3.3-0.7c1.7-0.9,2.4-1.6,2.6-3.2c0.1-0.9,0-1.8,0.1-2.7&#10;&#9;&#9;&#9;c0.6-3.8,2.8-7.3,5.1-10.3c7-9,15-14,18-29c0,0,3-11,11-17s10-21,10-21L316.7,175.9z" id="ByT4-0PHjXM"/><path class="st9" d="M407.2,180.3c2.6,1.9,5.2,3.6,8.2,4.7c0.8,0.3,1.6,0.6,2.5,0.4c0.9-0.2,1.6-0.9,2.3-1.6&#10;&#9;&#9;&#9;c4.6-4.8,8.7-10,13.6-14.5c4.9-4.4,9.4-8.9,12.3-14.9c1.2-2.4,1.9-5.3,0.9-7.9c-0.9-2.2-3.1-4.7-5.8-3.6c-2,0.8-2.8,3.2-2.9,5.3&#10;&#9;&#9;&#9;c-0.1,2.1,0.3,4.3-0.1,6.4c-1.1,4.8-5.7,6.8-9.7,8.6c-4.7,2.1-8.9,5.7-12.3,9.6c-1,1.1-2.1,2.4-3.5,2.4c-1.6,0-2.9-1.5-3.9-2.8&#10;&#9;&#9;&#9;c-5.2-6.8-11.9-12.5-19.5-16.5c-3.3-1.7-13-7.6-16.7-7.2c-2.2,0.2-6.4,0.9-6.5,3.8c0,1.6,9.2,7.3,10.5,8.1c3.4,2.1,7,4.2,10.4,6.2&#10;&#9;&#9;&#9;c5,3,10.1,6,14.8,9.5C403.5,177.5,405.3,178.9,407.2,180.3z" id="rJCVbAvBiQM"/></g><g id="H1JHb0PHo7M"><g id="B1lrWAwHjQG"><polygon class="st9" points="314.6,375.8 312.1,397.9 317.7,396.9 325,371.1 &#9;&#9;&#9;" id="rk-rZAvHoXM"/><path class="st11" d="M316.2,394.5c-1-0.1-2.1-0.3-3,0c-1.7,0.5-2.8,2.3-3.1,4.1c-0.1,0.8-0.1,1.6,0.3,2.2&#10;&#9;&#9;&#9;&#9;c0.7,1.3,2.4,1.6,3.9,1.6c5.8,0.3,11.8-1,17.4,0.6c1.3,0.4,2.8,0.9,4,0.3c1.2-0.6,1.7-2.2,1.3-3.5c-0.4-1.3-1.6-2.2-2.8-2.8&#10;&#9;&#9;&#9;&#9;c-1.3-0.5-2.6-0.7-4-0.8C325.4,395.7,320.8,395,316.2,394.5z" id="r1zSWCPBoQz"/></g><g id="ry7HWADHoQG"><polygon class="st8" points="393.7,388.5 406.5,406.7 410,402.3 398.3,378.2 &#9;&#9;&#9;" id="S1VH-APHjQz"/><path class="st10" d="M406.6,402.9c-1,0.3-2,0.7-2.7,1.4c-1.3,1.2-1.5,3.4-0.9,5.1c0.3,0.7,0.7,1.4,1.3,1.9&#10;&#9;&#9;&#9;&#9;c1.2,0.8,2.9,0.3,4.2-0.3c5.3-2.4,10-6.2,15.8-7.4c1.3-0.3,2.9-0.5,3.7-1.6c0.8-1.1,0.5-2.8-0.5-3.7c-1-1-2.4-1.3-3.8-1.2&#10;&#9;&#9;&#9;&#9;s-2.7,0.6-3.9,1.1C415.4,399.9,411,401.3,406.6,402.9z" id="rJBBb0wSi7f"/></g></g><g id="rJIBZAPri7z"><path id="BJwH-CwBj7M" class="st14" d="M327.6,256.6c-0.8,1.4-1.4,3.1-1.5,5.4c-1.1,16.2,6.1,32.8,0.6,48.7c-1.8,5.2-5.5,9.3-7.7,14.2&#10;&#9;&#9;&#9;c-2.6,5.5-4.7,11.2-6.1,17.1c-2.7,11.3-2.9,23.1-0.6,34.5c0.2,1.1,0.5,2.2,1.2,3c0.7,0.9,1.8,1.4,2.9,1.8c2.2,1,4.6,1.9,6.9,1.2&#10;&#9;&#9;&#9;c2.3-0.7,3.8-4,2-5.6c0,0,8.8-47,15.1-57.2c6.3-10.2,22.1-53.6,21.8-55.6S349.6,240,349.6,240c-4.1,2.9-8.1,5.7-12.2,8.6&#10;&#9;&#9;&#9;C333.3,251.6,329.6,253.2,327.6,256.6z"/><path id="SJOBbAPrsXM" class="st13" d="M324.4,227.3c-2.7,7.7-5.5,16.2-3,24c3.2,9.9,13.9,15.6,18.1,25.1c1.6,3.7,2.2,7.7,3,11.6&#10;&#9;&#9;&#9;c1.6,7.4,4.4,14.5,8.1,21c3.1,5.3,6.8,10.2,8.6,16.1c1.4,4.3,1.6,8.9,2.1,13.4c1.4,11.2,5.2,22.3,12.2,31.3c3.3,4.3,7.3,8,11,12&#10;&#9;&#9;&#9;c3.9,4.3,7.5,8.9,10.7,13.9c0.4,0.6,1.1,1,1.9,0.8c3.2-0.6,6.2-2.4,8.1-5.1c0.6-0.8,0.5-1.8-0.3-2.5c-1.5-1.4-2.7-3-3.5-4.8&#10;&#9;&#9;&#9;c0,0-27.2-54.3-25.6-67.4c1.6-13.1-8.9-60.7-8.9-60.7s5.2-11,4.2-18.6S324.4,227.3,324.4,227.3z"/></g><g id="HJFHZRwBomf"><path class="st11" d="M374.9,144.4c3.9,1.5,7.3,4.2,11.4,4.8c0.4,0.1,0.9,0.1,1.2,0.3c0.7,0.4,0.8,1.4,0.5,2.2s-0.9,1.3-1.5,1.9&#10;&#9;&#9;&#9;c-3,3.1-5.3,6.7-6.8,10.8c-0.6,1.6-1.4,3.6-3.1,3.9c-0.6,0.1-1.3-0.1-1.8-0.3c-4.3-1.6-6.7-6.1-8.5-10.3c-1-2.3-1.8-4.6-3.1-6.7&#10;&#9;&#9;&#9;c-0.7-1.3-3.8-4-3.4-5.4C361.1,141.7,372.4,143.5,374.9,144.4z" id="Sy9HZ0DHjXM"/><path class="st10" d="M341.3,147.8c-0.6-0.3-1.1-0.7-1.8-0.8c-0.6-0.1-1.3,0.2-1.8,0.4c-6.4,2.4-13.1,5-17.3,10.4&#10;&#9;&#9;&#9;c-1.9,2.5-3.2,5.5-4.4,8.4c-2.4,5.6-4.7,11.3-7.1,16.9c4.7,5.2,11.3,8.6,18.2,9.4c0.6-4,1.8-7.9,3.6-11.6&#10;&#9;&#9;&#9;c2.5,8.4,0.3,17.4-1.9,25.8c-2.8,10.7-5.6,21.4-8.4,32.1c-0.3,1-0.5,2.2,0.1,3c0.6,0.8,1.7,0.9,2.6,0.9c4.7,0.2,9.4,0,14-0.7&#10;&#9;&#9;&#9;c4.3-0.6,8.5-1.7,12.8-1.7c8.4-0.1,16.6,3.4,25.1,3.1c1,0,2.1-0.2,3-0.6c1.8-1,2.6-3.2,2.5-5.3c-0.1-2-1-4-1.8-5.9&#10;&#9;&#9;&#9;c-3.9-9.5-5.8-19.9-5.5-30.2c0.3-9,2.1-17.8,2.7-26.8c0.5-8.9-0.4-18.4-5.2-25.9c-1.5-2.4-3.9-5.2-6.8-6.1&#10;&#9;&#9;&#9;c-3.5-1.1-3.9,1.4-6.3,3.4C353.1,149.8,346.3,150.8,341.3,147.8z" id="ByiB-0PBo7z"/></g></g></svg>
</svg>