<?xml version="1.0" encoding="utf-8"?>
<!-- Generator: Adobe Illustrator 20.1.0, SVG Export Plug-In . SVG Version: 6.00 Build 0)  -->
<svg version="1.1" id="Layer_1" xmlns="http://www.w3.org/2000/svg" xmlns:xlink="http://www.w3.org/1999/xlink" x="0px" y="0px"
	 viewBox="0 0 35 36" style="enable-background:new 0 0 35 36;" xml:space="preserve">
<style type="text/css">
	.st0{fill:#2B2E33;}
</style>
<path class="st0" d="M15.1,12.7c0,0.5,0,2.5,0,2.5h-1.8v3h1.8v9.1h3.8v-9.1h2.5c0,0,0.2-1.5,0.3-3.1c-0.3,0-2.9,0-2.9,0s0-1.8,0-2.1
	s0.4-0.7,0.8-0.7s1.2,0,2,0c0-0.4,0-1.9,0-3.2c-1.1,0-2.3,0-2.8,0C15,9.2,15.1,12.3,15.1,12.7L15.1,12.7z"/>
</svg>
