<?xml version="1.0" encoding="utf-8"?>
<!-- Generator: Adobe Illustrator 20.1.0, SVG Export Plug-In . SVG Version: 6.00 Build 0)  -->
<svg version="1.1" id="Layer_1" xmlns="http://www.w3.org/2000/svg" xmlns:xlink="http://www.w3.org/1999/xlink" x="0px" y="0px"
	 viewBox="0 0 36 36" style="enable-background:new 0 0 36 36;" xml:space="preserve">
<style type="text/css">
	.st0{fill:#2B2E33;}
</style>
<path class="st0" d="M19.1,17.3v4.4c0,1.1,0,1.8,0.1,2.1s0.4,0.7,0.8,0.8c0.4,0.3,0.9,0.4,1.4,0.4c1,0,1.6-0.1,2.5-0.8v2.9
	c-0.8,0.4-1.6,0.6-2.2,0.8c-0.7,0.2-1.4,0.3-2.2,0.3c-0.9,0-1.4-0.1-2.1-0.3s-1.3-0.5-1.8-0.9c-0.5-0.4-0.8-0.8-1-1.3
	s-0.3-1.2-0.3-2v-6.8h-2.6v-2.8c0.8-0.3,1.6-0.6,2.2-1.1c0.5-0.5,1-1,1.3-1.7s0.6-1.4,0.7-2.4H19v4.9h4.9v3.6L19.1,17.3L19.1,17.3z"
	/>
</svg>
