<?xml version="1.0" encoding="utf-8"?>
<!-- Generator: Adobe Illustrator 19.2.0, SVG Export Plug-In . SVG Version: 6.00 Build 0)  -->
<svg version="1.1" id="Layer_1" xmlns="http://www.w3.org/2000/svg" xmlns:xlink="http://www.w3.org/1999/xlink" x="0px" y="0px"
	 viewBox="0 0 943.6 459.8" style="enable-background:new 0 0 943.6 459.8;" xml:space="preserve">
<style type="text/css">
	.st0{fill:#4C3218;}
	.st1{fill:#6A862A;}
</style>
<rect class="st0" width="1108.3" height="459.8"/>
<g>
	<g>
		
			<image style="overflow:visible;opacity:0.5;enable-background:new    ;" width="1160" height="91" xlink:href="CD419F8048365987.png"  transform="matrix(0.9991 0 0 0.989 -3.6275 -11.6275)">
		</image>
		<g>
			<polygon class="st1" points="1105.7,50.4 1102.1,47.4 1099.9,48.9 1097.6,53.1 1095.3,46.7 1093,47.2 1090.8,51.7 1088.5,48 
				1086.2,46.5 1084,51.7 1081.7,45.9 1079.4,46.6 1077.1,46.5 1074.9,48.8 1072.6,52.3 1070.3,53 1068,50.8 1065.8,45.6 
				1063.5,52.2 1061.2,50.7 1058.9,47.9 1056.7,52.7 1054.4,51.5 1052.1,49.7 1049.8,53 1047.6,52.1 1045.3,50.8 1043,47.3 
				1040.7,48.6 1038.5,49 1036.2,49.8 1033.9,48.3 1031.6,51.2 1029.3,47.1 1027.1,47.4 1024.8,52.2 1022.5,48.2 1020.2,53 
				1018,52.3 1015.7,50.6 1013.4,50.3 1011.1,47.2 1008.9,49 1006.6,46.9 1004.3,50 1002,51.2 999.8,48.1 997.5,51.9 995.2,52.1 
				992.9,50.4 990.7,51.4 988.4,51.8 986.1,47.4 983.8,48.7 981.6,46.3 979.3,48.3 977,46.4 974.7,45.4 972.5,51.8 970.2,51.8 
				967.9,52.3 965.7,49.3 963.4,49.3 961.1,49.7 958.8,51.5 956.6,50.6 954.3,46.4 952,47.3 949.7,51.3 947.5,48.4 945.2,50 
				942.9,48.8 940.6,51.3 938.4,45.7 936.1,52.6 933.8,46.3 931.5,51.7 929.3,47.4 927,47.9 924.7,51.4 922.4,46 920.2,52.2 
				917.9,52.9 915.6,53 913.3,48.5 911.1,49 908.8,48.1 906.5,48.2 904.2,46.6 901.9,51.2 899.7,51.4 897.4,46 895.1,47.8 892.8,49 
				890.6,47.3 888.3,46.8 886,48 883.7,50.1 881.5,51 879.2,48.9 876.9,51.8 874.6,49.6 872.4,51.1 870.1,45.4 867.8,49.9 
				865.5,50.1 863.3,48.3 861,46.4 858.7,52.7 856.4,45.6 854.2,45.4 851.9,51 849.6,46.9 847.3,50.8 845.1,53 842.8,49.4 
				840.5,51.1 838.2,47.6 836,48.2 833.7,46.9 831.4,52.1 829.1,52.2 826.9,52.3 824.6,52.3 822.3,52.2 820,46 817.8,50.8 
				815.5,45.3 813.2,49.4 810.9,53.1 808.7,48.6 806.4,52.6 804.1,46.2 801.8,52.3 799.6,47.9 797.3,48.4 795,50.5 792.7,46.6 
				790.4,50.1 788.2,50.3 785.9,46.4 783.6,49.2 781.3,52.5 779.1,46.8 776.8,49.4 774.5,45.2 772.2,46.1 770,45.2 767.7,47.9 
				765.4,49.7 763.1,47.9 760.9,47.1 758.6,49.6 756.3,46.2 754,47.6 751.8,46.4 749.5,51.1 747.2,49.3 744.9,52.7 742.7,48.4 
				740.4,52.4 738.1,50.1 735.8,48.9 733.6,47.4 731.3,47 729,47.3 726.7,51.1 724.5,47.2 722.2,46.1 719.9,52.8 717.6,46.2 
				715.4,46.3 713.1,50.4 710.8,48.8 708.5,51.5 706.2,48.6 704,52.5 701.7,49.8 699.4,48.9 697.1,46.1 694.9,47.3 692.6,47.6 
				690.3,51.1 688.1,48.8 685.8,46 683.5,46.3 681.3,52.5 679,53 676.7,46.2 674.4,47.1 672.2,48.4 669.9,48.2 667.6,49.9 
				665.4,47.1 663.1,51.5 660.8,47.5 658.5,50.9 656.3,52.7 654,49.4 651.7,52.5 649.4,49.7 647.2,45.3 644.9,46.8 642.6,47.7 
				640.3,50.6 638.1,46.2 635.8,50.8 633.5,47.3 631.2,51.3 629,46.1 626.7,52.5 624.4,50.7 622.1,50.5 619.9,45.2 617.6,47.9 
				615.3,49.1 613,52.6 610.8,48.8 608.5,48.5 606.2,50.4 603.9,47.5 601.7,47 599.4,51.4 597.1,50.3 594.8,47.3 592.6,49.4 
				590.3,46.8 588,52.3 585.7,47 583.5,49.7 581.2,50.1 578.9,48 576.7,46.6 574.4,48.3 572.1,52.8 569.8,45.4 567.6,49 565.3,46.7 
				563,53.1 560.7,47 558.5,45.2 556.2,46.9 553.9,45.9 551.7,51.3 549.4,50.5 547.1,49.3 544.8,46.3 542.6,50.6 540.3,52.8 
				538,49.4 535.7,47.6 533.5,49.9 531.2,49.2 528.9,51.6 526.6,45.6 524.4,49.4 522.1,46.1 519.8,45.2 517.5,46.8 515.3,46.4 
				513,48.7 510.7,47 508.4,46.5 506.1,46.8 503.9,50.5 501.6,52.7 499.3,46.9 497,47.3 494.8,48.1 492.5,50.5 490.2,47.2 
				487.9,49.1 485.7,45.8 483.4,48.2 481.1,48.8 478.8,49 476.6,48.7 474.3,46.2 472,49 469.7,52.9 467.5,50.2 465.2,50.9 
				462.9,51.6 460.6,48.1 458.4,45.8 456.1,51.1 453.8,49 451.5,45.7 449.3,52 447,46.3 444.7,46.4 442.4,47.9 440.2,45.4 
				437.9,48.3 435.6,50.2 433.3,51.4 431.1,47 428.8,49.3 426.5,50.4 424.2,46.7 421.9,50.4 419.7,45.4 417.4,48.4 415.1,52.3 
				412.8,53.1 410.6,45.3 408.3,46.8 406,46.5 403.7,46.9 401.5,49.3 399.2,52.7 396.9,53 394.6,53 392.4,47.4 390.1,53 387.8,50.8 
				385.5,48 383.3,46.6 381,50 378.7,52.3 376.4,51.1 374.1,47.5 371.9,46.3 369.6,51.9 367.3,51 365,52.8 362.8,51.1 360.5,53.1 
				358.2,50.5 355.9,51.6 353.6,50.7 351.4,46.1 349.1,50.9 346.8,46.2 344.5,50.2 342.3,52.5 340,47.1 337.7,48.7 335.4,47.9 
				333.1,47.5 330.9,46.9 328.6,51.3 326.3,48.4 324,53.1 321.8,49.2 319.5,48.3 317.2,50.1 314.9,49.3 312.7,50.9 310.4,50.7 
				308.1,47 305.8,47.8 303.5,49.6 301.3,51.1 299,45.6 296.7,46.7 294.4,47.6 292.1,46.7 289.9,49.4 287.6,49 285.3,47 283,48.7 
				280.8,49.4 278.5,49.2 276.2,52.5 273.9,47 271.6,48.2 269.4,50.8 267.1,52.2 264.8,52.3 262.5,50.2 260.2,49.2 258,51 
				255.7,48.1 253.4,45.3 251.1,52.7 248.9,47.3 246.6,46.1 244.3,47.8 242,51.8 239.7,49.7 237.5,47.2 235.2,48.9 232.9,48 
				230.6,50.1 228.3,50.4 226.1,49.7 223.8,46.2 221.5,49.3 219.2,51.7 217,47.3 214.7,49 212.4,51.4 210.1,52.8 207.8,46.4 
				205.6,53.1 203.3,50.8 201,45.3 198.7,48.4 196.4,45.6 194.2,49.2 191.9,49.1 189.6,50.4 187.3,49.7 185.1,45.6 182.8,46.9 
				180.5,47 178.2,48.5 176,52 173.7,48.8 171.4,49.1 169.1,52 166.8,47.8 164.6,47 162.3,50.8 160,49.9 157.7,51.3 155.5,46.2 
				153.2,46.1 150.9,49.2 148.6,46.8 146.3,52.6 144.1,49.7 141.8,52.6 139.5,50.3 137.2,51.4 135,47.9 132.7,47.9 130.4,49.2 
				128.1,49.7 125.8,50.9 123.6,48.6 121.3,46.8 119,47.3 116.7,51.1 114.4,48.7 112.2,49.2 109.9,50.3 107.6,51.2 105.3,50.5 
				103,48.3 100.8,47.4 98.5,47.4 96.2,52.8 93.9,49 91.6,48.4 89.3,50 87.1,47.7 84.8,48.2 82.5,46.3 80.2,52.8 77.9,48 75.7,46.9 
				73.4,45.3 71.1,47.2 68.8,48.2 66.5,50.8 64.2,47.1 62,50.3 59.7,49.1 57.4,51.7 55.1,48 52.8,50.2 50.6,52.7 48.3,50.3 46,46.5 
				43.7,45.2 41.4,47 39.1,49 36.9,47.8 34.6,49.9 32.3,49.8 30,49.4 27.7,48.3 25.4,50.1 23.2,50.2 20.9,49.3 18.6,52.9 16.3,46.1 
				14,49.1 11.7,48.1 9.4,49.9 7.2,45.7 4.9,51.8 3,48.7 6.3,46.8 2.6,44.5 5.8,42.2 3.4,39.9 1.7,37.6 3.5,35.3 2.1,33 5.4,30.7 
				4.3,28.4 0.8,26.1 3.7,23.8 -1.3,21.5 6.1,19.2 3.3,17.7 4.8,19.4 7.1,18.1 9.4,17.6 11.7,20.7 13.9,15.1 16.2,17.3 18.5,16.9 
				20.8,19.1 23,16.3 25.3,13.2 27.6,16.8 29.9,17.2 32.1,15.4 34.4,19.6 36.7,18.6 39,18.7 41.2,18.5 43.5,14.9 45.8,18.8 
				48.1,15.3 50.3,13.5 52.6,15.6 54.9,20.7 57.2,15.4 59.4,14.8 61.7,20.6 64,15.8 66.3,13.9 68.5,20.2 70.8,13.4 73.1,15.5 
				75.4,17 77.6,15.1 79.9,16.5 82.2,17.6 84.5,16 86.7,18.4 89,14 91.3,19.4 93.6,15.9 95.8,16.2 98.1,17.8 100.4,20.5 102.7,19.7 
				104.9,19.5 107.2,14.8 109.5,13.5 111.8,19.9 114,19 116.3,19.8 118.6,17.4 120.9,16.4 123.1,17.5 125.4,13.2 127.7,16.5 
				130,17.4 132.2,16.7 134.5,20.3 136.8,19.8 139.1,19.1 141.3,19 143.6,15.1 145.9,15.5 148.2,14.1 150.4,17.6 152.7,16.5 
				155,18.8 157.3,19.3 159.5,19.1 161.8,20.8 164.1,13.1 166.4,20.2 168.6,15.5 170.9,17.9 173.2,13.1 175.5,13.2 177.7,14 
				180,15.8 182.3,19.9 184.6,12.9 186.8,18.6 189.1,16.5 191.4,15.1 193.7,20.2 195.9,14.5 198.2,18.2 200.5,19.6 202.8,18.4 
				205,17.7 207.3,14 209.6,13.8 211.9,19.3 214.1,16.6 216.4,19.9 218.7,15.8 221,15.4 223.3,13.1 225.5,14.3 227.8,18.6 
				230.1,13.6 232.4,13.2 234.6,15.5 236.9,18.5 239.2,15.4 241.5,13.2 243.7,16.4 246,20 248.3,13.1 250.6,18.4 252.8,14.3 
				255.1,17.6 257.4,20.8 259.7,18.8 261.9,20.9 264.2,15.9 266.5,16.6 268.7,13.7 271,18.5 273.3,15.2 275.6,14.6 277.8,20 
				280.1,20.6 282.4,17.7 284.7,16.7 287,17.9 289.2,17.3 291.5,20.6 293.8,20.5 296.1,18.6 298.3,13.7 300.6,18.9 302.9,19.6 
				305.2,15 307.4,19.7 309.7,17.2 312,18.7 314.3,14.8 316.5,16.2 318.8,15.5 321.1,16.6 323.4,15 325.6,13.6 327.9,19.3 
				330.2,20.2 332.5,20 334.8,16.6 337,20 339.3,17.3 341.6,19.1 343.9,13.3 346.1,12.9 348.4,20.3 350.7,16.6 353,18.7 355.2,16 
				357.5,19.4 359.8,14.4 362.1,16.8 364.3,18.9 366.6,15.2 368.9,17.7 371.2,18.2 373.4,18.7 375.7,15.9 378,18 380.3,18.5 
				382.5,15.1 384.8,17.2 387.1,16.9 389.4,19.7 391.6,18.6 393.9,18.5 396.2,20.6 398.5,13.1 400.7,14.2 403,13.4 405.3,13.1 
				407.6,19.2 409.8,16.7 412.1,15.7 414.4,13.2 416.6,14 418.9,15.4 421.2,19.2 423.5,15.3 425.7,18.7 428,14.2 430.3,17.2 
				432.5,16.6 434.8,15.5 437.1,16.4 439.4,18.5 441.6,16.9 443.9,15.2 446.2,13.3 448.4,18.6 450.7,18.1 453,17.2 455.3,19.4 
				457.5,15.5 459.8,14.4 462.1,13.3 464.4,13 466.6,19.7 468.9,15.1 471.2,15.7 473.5,16.4 475.8,20.7 478,20.1 480.3,19.9 
				482.6,15.9 484.9,18.8 487.1,13.5 489.4,19.4 491.7,17.8 494,13 496.2,14.6 498.5,14.8 500.8,14.4 503.1,13.8 505.3,13.5 
				507.6,14.2 509.9,19.6 512.2,19.7 514.4,13.3 516.7,15.8 519,19.2 521.2,17.8 523.5,14.1 525.8,16.4 528.1,13.5 530.3,20 
				532.6,17.3 534.9,14.9 537.2,19.2 539.4,18.5 541.7,20.9 544,20.1 546.2,16.8 548.5,15.9 550.8,13.5 553.1,17.5 555.3,16.3 
				557.6,15.6 559.9,16.1 562.1,16.1 564.4,16.3 566.7,12.9 569,19.7 571.2,16.8 573.5,15.4 575.8,18.4 578.1,13 580.3,17.6 
				582.6,19.6 584.9,17.3 587.2,19 589.5,14.7 591.7,17.4 594,17.3 596.3,15.6 598.6,20.8 600.8,13.9 603.1,15.1 605.4,18.1 
				607.7,18.3 609.9,14.4 612.2,19.1 614.5,15.2 616.8,12.9 619.1,15 621.3,14.7 623.6,20.6 625.9,18.9 628.1,13.2 630.4,16.6 
				632.7,20 635,18.7 637.2,15.4 639.5,16.1 641.8,18.7 644.1,18.4 646.3,20.9 648.6,14 650.9,17.6 653.2,17.9 655.4,16.5 
				657.7,20.1 660,20.6 662.3,14.6 664.5,17.7 666.8,18.5 669.1,18.9 671.4,14.6 673.6,13.8 675.9,18.7 678.2,16.4 680.5,17 
				682.8,20.7 685,15.4 687.3,18 689.6,16.3 691.9,19.2 694.2,18.4 696.4,19.5 698.7,14.4 701,15 703.3,14.2 705.5,18.9 707.8,13.2 
				710.1,20.9 712.4,13.5 714.6,14.3 716.9,13 719.2,15.2 721.5,13.5 723.7,16.8 726,19.3 728.3,18.8 730.6,14.2 732.8,19.5 
				735.1,17.8 737.4,18.6 739.7,20.6 741.9,14.9 744.2,17.8 746.5,14.9 748.8,18.4 751.1,18.2 753.3,20.3 755.6,16.7 757.9,15.2 
				760.2,20 762.5,16.3 764.7,14.6 767,14.3 769.3,19 771.6,18.2 773.8,18.4 776.1,14.7 778.4,17 780.7,13.6 782.9,15 785.2,13.5 
				787.5,16 789.8,17.7 792.1,19.4 794.3,19.4 796.6,18.5 798.9,13.7 801.2,20.2 803.5,19.6 805.7,15.9 808,18.3 810.3,15.5 
				812.6,20.8 814.8,13.5 817.1,14.3 819.4,20.1 821.7,19.9 824,20.4 826.2,13.1 828.5,18 830.8,15.9 833.1,14.8 835.3,18.5 
				837.6,19 839.9,15.3 842.2,18.7 844.5,20.4 846.7,17.2 849,13.7 851.3,13.7 853.6,13.6 855.9,20.6 858.1,18.6 860.4,16.1 
				862.7,17.4 865,19.4 867.2,16.1 869.5,17.8 871.8,20.7 874.1,14.8 876.4,18.3 878.6,16.9 880.9,18 883.2,16.3 885.5,13.6 
				887.8,19.2 890,15.6 892.3,16.6 894.6,14.1 896.9,18.6 899.2,20.3 901.4,20.9 903.7,20.6 906,14.4 908.3,16.5 910.6,19 912.8,20 
				915.1,16.8 917.4,18.5 919.7,17.8 921.9,13 924.2,18.8 926.5,18.5 928.8,13.5 931,16.8 933.3,13.5 935.6,20.8 937.9,13.8 
				940.1,17.6 942.4,20.1 944.7,15.5 947,13.6 949.3,17.6 951.5,20 953.8,18.5 956.1,18 958.4,15.7 960.6,15.3 962.9,13 965.2,16.7 
				967.5,18.3 969.8,15.2 972,18.4 974.3,18.2 976.6,14.3 978.9,18 981.2,15.5 983.4,17.9 985.7,20.8 988,18.5 990.3,18.1 
				992.6,15.4 994.8,19.9 997.1,12.9 999.4,13.6 1001.7,18.4 1004,14.1 1006.2,14.1 1008.5,20.2 1010.8,14 1013.1,19.7 1015.4,17.8 
				1017.6,17.4 1019.9,20.2 1022.2,18.9 1024.5,13.8 1026.8,13 1029.1,14 1031.3,17.2 1033.6,19.9 1035.9,17.5 1038.2,17.1 
				1040.5,19 1042.7,19.4 1045,15.6 1047.3,15.7 1049.6,19.7 1051.9,19.2 1054.2,16.5 1056.4,19.9 1058.7,19.8 1061,19.6 
				1063.3,16.4 1065.6,18 1067.8,15.6 1070.1,19.6 1072.4,19.8 1074.7,20.4 1077,17.8 1079.3,14.3 1081.5,15.7 1083.8,20 1086.1,16 
				1088.4,14.1 1090.7,17.2 1093,15.1 1095.3,17.1 1097.5,17.4 1099.8,18.7 1102.1,18.7 1106.3,15 1107.7,19.2 1101.4,21.5 
				1105.7,23.8 1100.7,26.1 1106.4,28.4 1101.4,30.7 1105.3,33 1104.2,35.3 1106.9,37.6 1105.1,39.9 1107.7,42.2 1108.3,44.5 
				1106.6,46.3 			"/>
		</g>
	</g>
	<rect class="st1" width="1108.3" height="37.6"/>
</g>
</svg>
