<svg version="1.1" xmlns="http://www.w3.org/2000/svg" xmlns:xlink="http://www.w3.org/1999/xlink" x="0px" y="0px" viewBox="0 0 1366 768" style="enable-background:new 0 0 1366 768;" id="BkU-OZcY97f">
    <style>
        #SJu-Ob9FqXf{fill: #FFF8F8;}#BJKbdW5F9mG{fill: #FFE7DF;}#H1i-_WqF5XG{fill: #C8807B;}#S12bdW5Fq7G{fill: #FFE7DF;}#Hy6W_b9tqQf{fill: none;stroke: #D17C7C;stroke-linecap: round;stroke-miterlimit: 10;}#H1Ab_-9Y97z{fill: none;stroke: #D17C7C;stroke-linecap: round;stroke-miterlimit: 10;}#Hk1fuW5Y5mf{fill: none;stroke: #D17C7C;stroke-linecap: round;stroke-miterlimit: 10;}#HJeGOW9t9mM{fill: none;stroke: #D17C7C;stroke-linecap: round;stroke-miterlimit: 10;}#HybGO-9KcQf{fill: none;stroke: #D17C7C;stroke-linecap: round;stroke-miterlimit: 10;}#ByfMOZ9KcXz{fill: none;stroke: #D17C7C;stroke-linecap: round;stroke-miterlimit: 10;}#By7G_-cK9XG{fill: none;stroke: #D17C7C;stroke-linecap: round;stroke-miterlimit: 10;}#S1wfuZ5t9mM{fill: #FFE7DF;stroke: #FFE7DF;stroke-linecap: round;stroke-linejoin: round;stroke-miterlimit: 10;transform:  matrix(-1,-4.489177e-11,4.489177e-11,-1,418,501);}#HyuGd-cFqQz{fill: #FFFFFF;stroke: #FFFFFF;stroke-linecap: round;stroke-linejoin: round;stroke-miterlimit: 10;transform:  matrix(-1,-4.489310e-11,4.489310e-11,-1,418,501);}#ByFMOW5Kq7M{fill: #C8807B;stroke: #C8807B;stroke-linecap: round;stroke-linejoin: round;stroke-miterlimit: 10;transform:  matrix(-1,-4.489354e-11,4.489354e-11,-1,418,720);}#Hy5MOZ9Kqmz{fill: #FFE7DF;stroke: #FFE7DF;stroke-linecap: round;stroke-linejoin: round;stroke-miterlimit: 10;transform:  matrix(-1,-4.489443e-11,4.489443e-11,-1,421,498);}#r12zdb5F9Qf{fill: none;stroke: #CD7E7E;stroke-width: 2;stroke-linecap: round;stroke-linejoin: round;stroke-miterlimit: 10;}#HJaGdZqK5mG{fill: none;stroke: #CD7E7E;stroke-width: 2;stroke-linecap: round;stroke-linejoin: round;stroke-miterlimit: 10;}#HyAfd-qF5Xf{fill: none;stroke: #CD7E7E;stroke-width: 2;stroke-linecap: round;stroke-linejoin: round;stroke-miterlimit: 10;}#r1yQu-qY9mf{fill: none;stroke: #CD7E7E;stroke-width: 2;stroke-linecap: round;stroke-linejoin: round;stroke-miterlimit: 10;}#r1lXubqK9XM{fill: none;stroke: #CD7E7E;stroke-width: 2;stroke-linecap: round;stroke-linejoin: round;stroke-miterlimit: 10;}#ryWXOWcKc7f{fill: none;stroke: #CD7E7E;stroke-width: 2;stroke-linecap: round;stroke-linejoin: round;stroke-miterlimit: 10;}#Hk7QOb9K5mG{fill: none;stroke: #CD7E7E;stroke-width: 2;stroke-linecap: round;stroke-linejoin: round;stroke-miterlimit: 10;}#SyNQu-cF9mf{fill: none;stroke: #CD7E7E;stroke-width: 2;stroke-linecap: round;stroke-linejoin: round;stroke-miterlimit: 10;}#HySQu-qY9Qz{fill: none;stroke: #CD7E7E;stroke-width: 2;stroke-linecap: round;stroke-linejoin: round;stroke-miterlimit: 10;}#BkIQdZ5tqQf{fill: none;stroke: #CD7E7E;stroke-width: 2;stroke-linecap: round;stroke-linejoin: round;stroke-miterlimit: 10;}#Byw7u-5t5Xf{fill: none;stroke: #CD7E7E;stroke-width: 2;stroke-linecap: round;stroke-linejoin: round;stroke-miterlimit: 10;}#BJOmdWcKcmz{fill: none;stroke: #CD7E7E;stroke-width: 2;stroke-linecap: round;stroke-linejoin: round;stroke-miterlimit: 10;}#HJKmdWqYcXz{fill: #C8807B;stroke: #C8807B;stroke-linecap: round;stroke-linejoin: round;stroke-miterlimit: 10;transform:  matrix(-1,-4.489798e-11,4.489798e-11,-1,418,283);}#S1cXOZ5FcQM{fill: none;stroke: #B53540;stroke-width: 2;stroke-linecap: round;stroke-linejoin: round;stroke-miterlimit: 10;}#By6X_WctqQM{fill: #FFE7DF;stroke: #FFE7DF;stroke-linecap: round;stroke-linejoin: round;stroke-miterlimit: 10;}#H10Q_Z9F9QG{fill: #FFFFFF;stroke: #FFFFFF;stroke-linecap: round;stroke-linejoin: round;stroke-miterlimit: 10;}#rkyV_-9K5mz{fill: #C8807B;stroke: #C8807B;stroke-linecap: round;stroke-linejoin: round;stroke-miterlimit: 10;}#rJlNObcFqXf{fill: #FFE7DF;stroke: #FFE7DF;stroke-linecap: round;stroke-linejoin: round;stroke-miterlimit: 10;}#SyMVOZ9Y5QG{fill: none;stroke: #CD7E7E;stroke-width: 2;stroke-linecap: round;stroke-linejoin: round;stroke-miterlimit: 10;}#HJQVOb5tqQz{fill: none;stroke: #CD7E7E;stroke-width: 2;stroke-linecap: round;stroke-linejoin: round;stroke-miterlimit: 10;}#BkEE_WqYcmz{fill: none;stroke: #CD7E7E;stroke-width: 2;stroke-linecap: round;stroke-linejoin: round;stroke-miterlimit: 10;}#BySEu-cKqXf{fill: none;stroke: #CD7E7E;stroke-width: 2;stroke-linecap: round;stroke-linejoin: round;stroke-miterlimit: 10;}#Sy8NuWcYqXf{fill: none;stroke: #CD7E7E;stroke-width: 2;stroke-linecap: round;stroke-linejoin: round;stroke-miterlimit: 10;}#ryvEdb9Yc7M{fill: none;stroke: #CD7E7E;stroke-width: 2;stroke-linecap: round;stroke-linejoin: round;stroke-miterlimit: 10;}#rJt4OWcY9Qz{fill: none;stroke: #CD7E7E;stroke-width: 2;stroke-linecap: round;stroke-linejoin: round;stroke-miterlimit: 10;}#H15NuZ5K9XM{fill: none;stroke: #CD7E7E;stroke-width: 2;stroke-linecap: round;stroke-linejoin: round;stroke-miterlimit: 10;}#SJiNOWcFqQM{fill: none;stroke: #CD7E7E;stroke-width: 2;stroke-linecap: round;stroke-linejoin: round;stroke-miterlimit: 10;}#r124O-9Yqmz{fill: none;stroke: #CD7E7E;stroke-width: 2;stroke-linecap: round;stroke-linejoin: round;stroke-miterlimit: 10;}#BkaV_bcYcQf{fill: none;stroke: #CD7E7E;stroke-width: 2;stroke-linecap: round;stroke-linejoin: round;stroke-miterlimit: 10;}#Hy0NO-cK9XG{fill: none;stroke: #CD7E7E;stroke-width: 2;stroke-linecap: round;stroke-linejoin: round;stroke-miterlimit: 10;}#BJ1S_-cFcQf{fill: #C8807B;stroke: #C8807B;stroke-linecap: round;stroke-linejoin: round;stroke-miterlimit: 10;}#Hyeru-ct9XG{fill: none;stroke: #B53540;stroke-width: 2;stroke-linecap: round;stroke-linejoin: round;stroke-miterlimit: 10;}#r1SHubqt5mM{fill: none;stroke: #BABABA;stroke-width: 3;stroke-linecap: round;stroke-miterlimit: 10;}#S18B_ZcF9Qz{fill: none;stroke: #BABABA;stroke-width: 3;stroke-linecap: round;stroke-miterlimit: 10;}#HJDHdbqF97z{fill: #FFE8E1;stroke: #FFE8E1;stroke-linecap: round;stroke-miterlimit: 10;}#rJtrdZ5t9Qz{fill: none;stroke: #BABABA;stroke-width: 3;stroke-linecap: round;stroke-miterlimit: 10;}#Sk9r_-9K9mf{fill: none;stroke: #BABABA;stroke-width: 3;stroke-linecap: round;stroke-miterlimit: 10;}#Sy3ruZcFcXf{fill: none;stroke: #BABABA;stroke-width: 3;stroke-linecap: round;stroke-miterlimit: 10;}#B16ruZ5K5QM{fill: none;stroke: #BABABA;stroke-width: 3;stroke-linecap: round;stroke-miterlimit: 10;}#B1ArdW5tq7G{fill: none;stroke: #BABABA;stroke-width: 3;stroke-linecap: round;stroke-miterlimit: 10;}#B1eUubqYcQM{fill: #BE5D61;stroke: #BE5D61;stroke-linecap: round;stroke-linejoin: round;stroke-miterlimit: 10;}#H17UdZqY57f{fill: #984E56;}#HyEL_WcK5mM{fill: #D0856C;stroke: #D0856C;stroke-miterlimit: 10;}#BkrLOW5F57M{fill: #8B001E;stroke: #8B001E;stroke-linecap: round;stroke-linejoin: round;stroke-miterlimit: 10;}#H1FUObcF5XM{fill: #B16667;stroke: #B16667;stroke-miterlimit: 10;}#HycUdWqYqmG{fill: #FFBE9F;stroke: #FFBE9F;stroke-linecap: round;stroke-linejoin: round;stroke-miterlimit: 10;}#H1oUO-9FcQz{fill: #973741;stroke: #973741;stroke-linecap: round;stroke-linejoin: round;stroke-miterlimit: 10;}#r1a8dWqKqmz{fill: #FFE8E1;stroke: #FFE8E1;stroke-linecap: round;stroke-linejoin: round;stroke-miterlimit: 10;}#B1AIub5t5mG{fill: none;stroke: #BABABA;stroke-width: 3;stroke-linecap: round;stroke-miterlimit: 10;}#rykvuW9tcXf{fill: none;stroke: #BABABA;stroke-width: 3;stroke-linecap: round;stroke-miterlimit: 10;}#rklv_ZqFqQz{fill: none;stroke: #BABABA;stroke-width: 3;stroke-linecap: round;stroke-miterlimit: 10;}#HJGvO-qKqXM{fill: #FFD8A2;}#ByQPOZ5YcXz{fill: #E4BCA8;}#HyEPdb5F5Xf{fill: #FFE7E0;}#HkrPdb5FcXM{fill: #B06264;}#S1DwuZctcQf{fill: #8F1A34;stroke: #8F1A34;stroke-miterlimit: 10;}#S1_wOZ5FcXz{fill: #B36967;stroke: #B36967;stroke-linecap: round;stroke-linejoin: round;stroke-miterlimit: 10;}#ryqwdb9YqXf{fill: #D0856C;stroke: #D0856C;stroke-miterlimit: 10;}#rk2P_-cFcQz{fill: #FFDECA;stroke: #FFDECA;stroke-miterlimit: 10;}#Hk6DdZ9Yc7G{fill: #FFBE9F;stroke: #FFBE9F;stroke-linecap: round;stroke-linejoin: round;stroke-miterlimit: 10;}#ryJ_OZ5KqXf{fill: #830027;stroke: #8B001E;stroke-linecap: round;stroke-linejoin: round;stroke-miterlimit: 10;}#S1lu_W9Kqmf{opacity: 0.65;fill: url(#SVGID_1_);}#Syfu_-9KqQz{fill: #FFE8E1;stroke: #FFE8E1;stroke-linecap: round;stroke-linejoin: round;stroke-miterlimit: 10;}#H1Xd_ZcY5mf{fill: #FFDECA;stroke: #FFDECA;stroke-miterlimit: 10;}#r1vudZ9K5Xz{fill: none;stroke: #BABABA;stroke-width: 3;stroke-linecap: round;stroke-miterlimit: 10;}#ry__dZcF97f{fill: none;stroke: #BABABA;stroke-width: 3;stroke-linecap: round;stroke-miterlimit: 10;}#HktuOZ9tqQz{fill: #FFE8E1;stroke: #FFE8E1;stroke-linecap: round;stroke-miterlimit: 10;}#SyiO_b5Y97M{fill: none;stroke: #BABABA;stroke-width: 3;stroke-linecap: round;stroke-miterlimit: 10;}#rknO_b9Yq7G{fill: none;stroke: #BABABA;stroke-width: 3;stroke-linecap: round;stroke-miterlimit: 10;}#Sk0uu-qt9mG{fill: none;stroke: #BABABA;stroke-width: 3;stroke-linecap: round;stroke-miterlimit: 10;}#Hy1t_b9K97M{fill: none;stroke: #BABABA;stroke-width: 3;stroke-linecap: round;stroke-miterlimit: 10;}#SkxFdZ5KcXf{fill: none;stroke: #BABABA;stroke-width: 3;stroke-linecap: round;stroke-miterlimit: 10;}#rymFu-9K9mz{fill: #FFE8E1;stroke: #FFE8E1;stroke-linecap: round;stroke-linejoin: round;stroke-miterlimit: 10;}#HJEFu-cK5XM{fill: #FFE8E1;stroke: #FFE8E1;stroke-linecap: round;stroke-linejoin: round;stroke-miterlimit: 10;}#HJBK_W5Y5mf{fill: #BE5D61;stroke: #BE5D61;stroke-linecap: round;stroke-linejoin: round;stroke-miterlimit: 10;transform:  matrix(-1,-4.487178e-11,4.487178e-11,-1,1051.4681,861.2587);}#HyPF_b5F5Qz{fill: #BE5D61;stroke: #BE5D61;stroke-linecap: round;stroke-linejoin: round;stroke-miterlimit: 10;}#HyqFOb9YqmM{fill: #EFBFA5;stroke: #EFBFA5;stroke-miterlimit: 10;}#BkstOWqK5XG{fill: #8B001E;stroke: #8B001E;stroke-linecap: round;stroke-linejoin: round;stroke-miterlimit: 10;}#Sk3FuZ9tcmz{fill: #D0856C;stroke: #D0856C;stroke-miterlimit: 10;}#SJlq_W9Y5Qf{fill: #FFDECA;stroke: #FFDECA;stroke-miterlimit: 10;}#ryWc_Z5t57G{fill: #973741;stroke: #973741;stroke-linecap: round;stroke-linejoin: round;stroke-miterlimit: 10;}#SJzqO-cF9mM{fill: #FFBE9F;stroke: #FFBE9F;stroke-linecap: round;stroke-linejoin: round;stroke-miterlimit: 10;}#HJNcOb9K5mz{fill: #FFE8E1;stroke: #FFE8E1;stroke-linecap: round;stroke-linejoin: round;stroke-miterlimit: 10;}#SyScOZqFcQG{fill: none;stroke: #BABABA;stroke-width: 3;stroke-linecap: round;stroke-miterlimit: 10;}#r1LcdWqt9Xf{fill: none;stroke: #BABABA;stroke-width: 3;stroke-linecap: round;stroke-miterlimit: 10;}#SyD5d-5Y97M{fill: none;stroke: #BABABA;stroke-width: 3;stroke-linecap: round;stroke-miterlimit: 10;}#SJK5uWcY97f{fill: #FFD8A2;}#Sy99dWcY5Qz{fill: #E4BCA8;}#SJjqdW9Y5Xz{fill: #FFE7E0;}#Hy3qdW9Y5mG{fill: #FFDECA;stroke: #FFDECA;stroke-miterlimit: 10;}#H1R5_Zqtq7M{fill: #EFBFA5;stroke: #EFBFA5;stroke-miterlimit: 10;}#BJljdb5KcQG{fill: #8B001E;stroke: #8B001E;stroke-linecap: round;stroke-linejoin: round;stroke-miterlimit: 10;}#S1GjuZ5Y5Xz{fill: #B06264;}#SJmodWcFcXM{fill: #973741;stroke: #973741;stroke-linecap: round;stroke-linejoin: round;stroke-miterlimit: 10;}#SkrsuZqF9QG{fill: #D0856C;stroke: #D0856C;stroke-miterlimit: 10;}#BkLjO-5t9Xz{fill: #D0856C;stroke: #D0856C;stroke-miterlimit: 10;}

	@keyframes Syfu_-9KqQzAnimation {
		0% {
			transform: translate(2px, 0px);
		}
		33.33% {
			transform: translate(8px, 0px);
		}
		66.67% {
			transform: translate(4px, 0px);
		}
		90% {
			transform: translate(8px, 0px);
		}
		100% {
			transform: translate(3px, 0px);
		}
	}

	#Syfu_-9KqQz {
		transform-origin: 50% 50% !important;
		animation: Syfu_-9KqQzAnimation 3s infinite linear;
	}



	@keyframes H1Xd_ZcY5mfAnimation {
		0% {
			transform: translate(2px, 0px);
		}
		33.33% {
			transform: translate(8px, 0px);
		}
		66.67% {
			transform: translate(4px, 0px);
		}
		90% {
			transform: translate(8px, 0px);
		}
		100% {
			transform: translate(3px, 0px);
		}
	}

	#H1Xd_ZcY5mf {
		transform-origin: 50% 50% !important;
		animation: H1Xd_ZcY5mfAnimation 3s infinite linear;
	}



	@keyframes S1DwuZctcQfAnimation {
		0% {
			transform: translate(0px, 0px);
		}
		16.67% {
			transform: translate(-3px, 0px);
		}
		33.33% {
			transform: translate(-5px, 0px);
		}
		50% {
			transform: translate(-2px, 0px);
		}
		66.67% {
			transform: translate(-8px, 0px);
		}
		85.56% {
			transform: translate(-6px, 0px);
		}
		96.67% {
			transform: translate(-1px, 0px);
		}
		100% {
			transform: translate(0px, 0px);
		}
	}

	#S1DwuZctcQf {
		transform-origin: 50% 50% !important;
		animation: S1DwuZctcQfAnimation 3s infinite linear;
	}



	@keyframes S1_wOZ5FcXzAnimation {
		0% {
			transform: translate(0px, 0px);
		}
		33.33% {
			transform: translate(-3px, 0px);
		}
		50% {
			transform: translate(-10px, 0px);
		}
		66.67% {
			transform: translate(-5px, 0px);
		}
		85.56% {
			transform: translate(0px, 0px);
		}
	}

	#S1_wOZ5FcXz {
		transform-origin: 50% 50% !important;
		animation: S1_wOZ5FcXzAnimation 3s infinite linear;
	}



	@keyframes S1lu_W9KqmfAnimation {
		0% {
			opacity: 0.65;
		}
		16.67% {
			opacity: 0.4;
		}
		33.33% {
			opacity: 0.15;
		}
		50% {
			opacity: 0.45;
		}
		66.67% {
			opacity: 0.65;
		}
		83.33% {
			opacity: 0.35;
		}
		100% {
			opacity: 0.65;
		}
	}

	#S1lu_W9Kqmf {
		transform-origin: 50% 50% !important;
		animation: S1lu_W9KqmfAnimation 3s infinite linear;
	}



	@keyframes Hy3qdW9Y5mGAnimation {
		0% {
			transform: rotate(0deg);
		}
		33.33% {
			transform: rotate(5deg);
		}
		66.67% {
			transform: rotate(2deg);
		}
		83.33% {
			transform: rotate(4deg);
		}
		100% {
			transform: rotate(0deg);
		}
	}

	#Hy3qdW9Y5mG {
		transform-origin: 50% 50% !important;
		animation: Hy3qdW9Y5mGAnimation 3s infinite linear;
	}



	@keyframes HJNodb9tcQMAnimation {
		0% {
			transform: rotate(0deg);
		}
		33.33% {
			transform: rotate(-0.5deg);
		}
		100% {
			transform: rotate(0deg);
		}
	}

	#HJNodb9tcQM {
		transform-origin: 50% 50% !important;
		animation: HJNodb9tcQMAnimation 3s infinite linear;
	}



	@keyframes HkrPdb5FcXMAnimation {
		0% {
			transform: rotate(0deg);
		}
		33.33% {
			transform: rotate(-5deg);
		}
		66.67% {
			transform: rotate(-2deg);
		}
		83.33% {
			transform: rotate(-4deg);
		}
		100% {
			transform: rotate(0deg);
		}
	}

	#HkrPdb5FcXM {
		transform-origin: 50% 50% !important;
		animation: HkrPdb5FcXMAnimation 3s infinite linear;
	}



	@keyframes ry0v_-9Y97GAnimation {
		0% {
			transform: rotate(0deg);
		}
		33.33% {
			transform: rotate(0.1deg);
		}
		100% {
			transform: rotate(0deg);
		}
	}

	#ry0v_-9Y97G {
		transform-origin: 50% 50% !important;
		animation: ry0v_-9Y97GAnimation 3s infinite linear;
	}
    </style>
    <svg version="1.1" xmlns="http://www.w3.org/2000/svg" xmlns:xlink="http://www.w3.org/1999/xlink" x="0px" y="0px" viewBox="0 0 1366 768" style="enable-background:new 0 0 1366 768;" xml:space="preserve" id="BkU-OZcY97f"><g id="ryvZ_W9Kqmz"><path class="st0" d="M1366,0H0v234.4C44.7,132.2,146,36.9,246.3,46.2c49.2,4.5,96.2,24.3,145.3,29.8&#10;&#9;&#9;c144.8,16.4,287-91.4,429.2-58.9C867.4,27.7,910.2,53,957,62.3c99.5,19.8,209.3-38.5,301,6c44.7,21.7,85.8,73.2,108,116.9V0z" id="SJu-Ob9FqXf"/><path class="st1" d="M1366,0H0v234.4C44.7,132.2,146,36.9,246.3,46.2c49.2,4.5,96.2,24.3,145.3,29.8&#10;&#9;&#9;c144.8,16.4,287-91.4,429.2-58.9C867.4,27.7,910.2,53,957,62.3c99.5,19.8,209.3-38.5,301,6c44.7,21.7,85.8,73.2,108,116.9V0z" id="BJKbdW5F9mG"/></g><g id="SJcbdW9Y9mz"><rect y="566" class="st2" width="1366" height="29" id="H1i-_WqF5XG"/><rect y="579" class="st1" width="1366" height="189" id="S12bdW5Fq7G"/><line class="st3" x1="95.5" y1="675.5" x2="306.5" y2="675.5" id="Hy6W_b9tqQf"/><line class="st3" x1="717.5" y1="627.5" x2="928.5" y2="627.5" id="H1Ab_-9Y97z"/><line class="st3" x1="847.5" y1="645.5" x2="1058.5" y2="645.5" id="Hk1fuW5Y5mf"/><line class="st3" x1="156.5" y1="696.5" x2="239.5" y2="696.5" id="HJeGOW9t9mM"/><line class="st3" x1="1103.5" y1="712.5" x2="1314.5" y2="712.5" id="HybGO-9KcQf"/><line class="st3" x1="1173" y1="733.5" x2="1302.5" y2="733.5" id="ByfMOZ9KcXz"/><line class="st3" x1="666.5" y1="660.5" x2="749.5" y2="660.5" id="By7G_-cK9XG"/></g><g id="ryNzuWctcQf"><g><g><rect x="124" y="146.5" class="st4" width="170" height="208" id="S1wfuZ5t9mM"/><rect x="141" y="158.5" class="st5" width="136" height="184" id="HyuGd-cFqQz"/></g><rect x="117.5" y="353.5" class="st6" width="183" height="13" id="ByFMOW5Kq7M"/><rect x="134.5" y="239.5" class="st4" width="152" height="19" id="Hy5MOZ9Kqmz"/><g><line class="st7" x1="286.5" y1="146.5" x2="286.5" y2="353.5" id="r12zdb5F9Qf"/><line class="st7" x1="280" y1="147" x2="280" y2="354" id="HJaGdZqK5mG"/><line class="st7" x1="273" y1="147" x2="273" y2="354" id="HyAfd-qF5Xf"/><line class="st7" x1="266" y1="147" x2="266" y2="354" id="r1yQu-qY9mf"/><line class="st7" x1="259" y1="147" x2="259" y2="354" id="r1lXubqK9XM"/><line class="st7" x1="293" y1="147" x2="293" y2="354" id="ryWXOWcKc7f"/></g><g><line class="st7" x1="145.5" y1="146.5" x2="145.5" y2="353.5" id="Hk7QOb9K5mG"/><line class="st7" x1="139" y1="147" x2="139" y2="354" id="SyNQu-cF9mf"/><line class="st7" x1="132" y1="147" x2="132" y2="354" id="HySQu-qY9Qz"/><line class="st7" x1="125" y1="147" x2="125" y2="354" id="BkIQdZ5tqQf"/><line class="st7" x1="152" y1="147" x2="152" y2="354" id="Byw7u-5t5Xf"/><line class="st7" x1="159" y1="147" x2="159" y2="354" id="BJOmdWcKcmz"/></g><rect x="110.5" y="137" class="st6" width="197" height="9" id="HJKmdWqYcXz"/><line class="st8" x1="114" y1="144" x2="114" y2="266" id="S1cXOZ5FcQM"/></g><g><g><rect x="1071" y="146.5" class="st4" width="170" height="208" id="By6X_WctqQM"/><rect x="1088" y="158.5" class="st5" width="136" height="184" id="H10Q_Z9F9QG"/></g><rect x="1064.5" y="353.5" class="st6" width="183" height="13" id="rkyV_-9K5mz"/><rect x="1078.5" y="239.5" class="st4" width="152" height="19" id="rJlNObcFqXf"/><g><line class="st7" x1="1078.5" y1="146.5" x2="1078.5" y2="353.5" id="SyMVOZ9Y5QG"/><line class="st7" x1="1085" y1="147" x2="1085" y2="354" id="HJQVOb5tqQz"/><line class="st7" x1="1092" y1="147" x2="1092" y2="354" id="BkEE_WqYcmz"/><line class="st7" x1="1099" y1="147" x2="1099" y2="354" id="BySEu-cKqXf"/><line class="st7" x1="1106" y1="147" x2="1106" y2="354" id="Sy8NuWcYqXf"/><line class="st7" x1="1072" y1="147" x2="1072" y2="354" id="ryvEdb9Yc7M"/></g><g><line class="st7" x1="1219.5" y1="146.5" x2="1219.5" y2="353.5" id="rJt4OWcY9Qz"/><line class="st7" x1="1226" y1="147" x2="1226" y2="354" id="H15NuZ5K9XM"/><line class="st7" x1="1233" y1="147" x2="1233" y2="354" id="SJiNOWcFqQM"/><line class="st7" x1="1240" y1="147" x2="1240" y2="354" id="r124O-9Yqmz"/><line class="st7" x1="1213" y1="147" x2="1213" y2="354" id="BkaV_bcYcQf"/><line class="st7" x1="1206" y1="147" x2="1206" y2="354" id="Hy0NO-cK9XG"/></g><rect x="1057.5" y="137" class="st6" width="197" height="9" id="BJ1S_-cFcQf"/><line class="st8" x1="1251" y1="144" x2="1251" y2="266" id="Hyeru-ct9XG"/></g></g><g id="ByWrubcK5mz"><g id="SJMHOZqK5Qz"><g><g><line class="st9" x1="1131.5" y1="530" x2="1167.5" y2="645" id="r1SHubqt5mM"/><line class="st9" x1="1085.5" y1="530" x2="1046.5" y2="645" id="S18B_ZcF9Qz"/></g><path class="st10" d="M1176.1,377.8c0.3-0.2,0.7,0.2,0.5,0.5c-3.2,4.6-11.2,24.6-12.1,66.7c-1,50-5.5,91.5-60.5,89.5&#10;&#9;&#9;&#9;&#9;c-42.3-1.5-52.3-10.4-53.7-13.5c-0.3-0.7,0.3-1.4,1-1.2c8,1.7,52.7,10.1,71.8-6.3c19.6-16.8,25.7-43.7,28.7-68.2&#10;&#9;&#9;&#9;&#9;c1.6-12.8,2.6-24.8,6.7-37.2C1161.7,397.9,1166.5,383.9,1176.1,377.8z" id="HJDHdbqF97z"/><g><line class="st9" x1="1145.5" y1="520" x2="1198.5" y2="662" id="rJtrdZ5t9Qz"/><line class="st9" x1="1066.5" y1="528" x2="1008.5" y2="662" id="Sk9r_-9K9mf"/></g></g></g><g id="Byiru-9Fq7G"><line class="st9" x1="991.5" y1="446" x2="991.5" y2="640" id="Sy3ruZcFcXf"/><line class="st9" x1="830.5" y1="446" x2="830.5" y2="640" id="B16ruZ5K5QM"/><line class="st9" x1="991.5" y1="522.1" x2="830.5" y2="522.1" id="B1ArdW5tq7G"/></g><g id="ry1LOZqF5mG"><path class="st11" d="M995,444.5h-65c-2.2,0-4-1.8-4-4v-92c0-0.6,0.4-1,1-1h5c0.6,0,1,0.4,1,1v85c0,2.2,1.8,4,4,4h58&#10;&#9;&#9;&#9;c0.6,0,1,0.4,1,1v5C996,444.1,995.6,444.5,995,444.5z" id="B1eUubqYcQM"/></g><g id="H1ZU_Z5Y9QM"><g><polygon class="st12" points="1027.5,608.2 1039.8,641.5 1030.8,642.2 1009.7,605 &#9;&#9;&#9;" id="H17UdZqY57f"/><path class="st13" d="M1037.6,635.4c1.6-0.1,3.3-0.3,4.8,0.3c2.7,1,4.4,3.9,4.6,6.8c0.1,1.2,0,2.5-0.7,3.5c-1.3,2-4,2.3-6.3,2.3&#10;&#9;&#9;&#9;&#9;c-9.3,0-18.7-2.6-27.7-0.5c-2.1,0.5-4.5,1.2-6.4,0.1c-1.9-1.1-2.5-3.7-1.7-5.7c0.8-2,2.7-3.4,4.7-4.2c2-0.7,4.3-0.8,6.4-1&#10;&#9;&#9;&#9;&#9;C1022.9,636.7,1030.2,635.9,1037.6,635.4z" id="HyEL_WcK5mM"/><path class="st14" d="M1031.3,616.5h-18.6c-0.4,0-0.7-0.2-0.9-0.5c-4-7.9-49.9-98.5-54.7-109.2c-3.6-8.1,3.2-12.8,10-15.3&#10;&#9;&#9;&#9;&#9;c9.4-3.4,19.5-5.8,29.3-7.5c7.7-1.4,15.5-2.2,23.4-2.7c8.8-0.5,17.6-0.5,26.4-0.1c8.9,0.4,15.9,2.3,23.9,6.3&#10;&#9;&#9;&#9;&#9;c8.7,4.3,17.5,8.8,24.2,15.8c4.7,5,6.8,11-2.2,11.6c0,0-71,12.2-106,0c0,0,23,30.5,30,54.8c0,0,9.2,32.7,16.1,45.2&#10;&#9;&#9;&#9;&#9;C1032.5,615.7,1032,616.5,1031.3,616.5z" id="BkrLOW5F57M"/></g></g><g id="r1L8ubcKq7f"><g><g><polygon class="st15" points="1040.5,612.5 1050.5,646.5 1041.5,646.5 1023,608 &#9;&#9;&#9;&#9;" id="H1FUObcF5XM"/><path class="st16" d="M1048.1,643.9c1.6-0.1,3.3-0.3,4.8,0.3c2.7,1,4.4,3.9,4.6,6.8c0.1,1.2,0,2.5-0.7,3.5c-1.3,2-4,2.3-6.3,2.3&#10;&#9;&#9;&#9;&#9;&#9;c-9.3,0-18.7-2.6-27.7-0.5c-2.1,0.5-4.5,1.2-6.4,0.1c-1.9-1.1-2.5-3.7-1.7-5.7c0.8-2,2.7-3.4,4.7-4.2c2-0.7,4.3-0.8,6.4-1&#10;&#9;&#9;&#9;&#9;&#9;C1033.4,645.2,1040.7,644.4,1048.1,643.9z" id="HycUdWqYqmG"/><path class="st17" d="M1042.2,618.5h-15.7c-0.4,0-0.7-0.2-0.9-0.5c-4.4-7.5-56.9-98-61.7-108.5c-3.8-8.3,4.2-13.5,10.9-16.3&#10;&#9;&#9;&#9;&#9;&#9;c9.5-4,19.7-6.9,29.9-8.6c18.9-3.2,38.6-2.9,57.5,0.2c0.6,0.1,3.3,0.2,3.7,0.7c-3-4-2-20-2-20h60c0,0,7,18,7,28&#10;&#9;&#9;&#9;&#9;&#9;c0,9.6-4.6,21.9-29.6,24.7c-3.1,0.3-6.3,0.8-9.4,1.3c-17,2.6-66.4,8.8-95-1c0,0,23,30,30,54c0,0,9.2,32.1,16.1,44.5&#10;&#9;&#9;&#9;&#9;&#9;C1043.5,617.7,1043,618.5,1042.2,618.5z" id="H1oUO-9FcQz"/></g></g></g><g id="HkhIdbcY5Qf"><path class="st18" d="M828.2,468.5h165.6c1.2,0,2.2-1,2.2-2.2v-19.6c0-1.2-1-2.2-2.2-2.2H828.2c-1.2,0-2.2,1-2.2,2.2v19.6&#10;&#9;&#9;&#9;C826,467.5,827,468.5,828.2,468.5z" id="r1a8dWqKqmz"/><line class="st9" x1="991.5" y1="468" x2="991.5" y2="662" id="B1AIub5t5mG"/><line class="st9" x1="830.5" y1="468" x2="830.5" y2="662" id="rykvuW9tcXf"/><line class="st9" x1="991.5" y1="544.1" x2="830.5" y2="544.1" id="rklv_ZqFqQz"/></g><g id="SkWv_bctqXf"><rect x="-352" y="199" class="st19" width="47" height="97" id="HJGvO-qKqXM"/><rect x="-284" y="199" class="st20" width="47" height="97" id="ByQPOZ5YcXz"/><rect x="-216" y="199" class="st21" width="47" height="97" id="HyEPdb5F5Xf"/><path class="st22" d="M1020.4,320.2c0.5,2.6,1.1,5.1,2,7.5c2.2,6,6.6,11.6,12.7,13.6c6.7,2.2,15.1,0.2,20.1,5.3&#10;&#9;&#9;&#9;c2.5,2.5,2.2,7.8,4.8,9.5c1.3,0.8,13.9-0.6,13.9-0.8c-2.9-18.4-8.3-36.4-16-53.3c-1.9-4.2-4.2-8.6-8-11.3&#10;&#9;&#9;&#9;c-6.1-4.3-21.2-6-27.2-0.6c-3.8,3.4-3.9,11.4-3.6,16.1C1019.2,310.7,1019.5,315.5,1020.4,320.2z" id="HkrPdb5FcXM"/></g><g id="Sy8wOW5t57G"><path id="S1DwuZctcQf" class="st23" d="M992.8,428.8c-4.8,0.1-10.1,1-12.8,5.2c-0.3,0.4,0.1,1,0.6,0.9c3.3-0.4,6.1-2.8,9.4-2.5&#10;&#9;&#9;&#9;c2.2,0.2,4.4,0.5,6.5,0.9c1.5,0.3,25.5,1.5,26.3-0.2c0.6-1.4-0.8-3.6-2.1-4.1C1018.8,428.2,994.8,428.8,992.8,428.8z"/><path id="S1_wOZ5FcXz" class="st24" d="M992.8,431.8c-4.8,0.1-10.1,1-12.8,5.2c-0.3,0.4,0.1,1,0.6,0.9c3.3-0.4,6.1-2.8,9.4-2.5&#10;&#9;&#9;&#9;c2.2,0.2,4.4,0.5,6.5,0.9c1.5,0.3,28.5,1.5,29.3-0.2c0.6-1.4-0.8-3.6-2.1-4.1C1021.8,431.2,994.8,431.8,992.8,431.8z"/></g><g id="BJFDdb5YqmG"><path class="st13" d="M998,437.5h85c0,0,10,1,8-8c-4.9-22.2-9.8-44.8-16.9-66.4c-1.3-4.1-2.2-4.4-4.3-8.2&#10;&#9;&#9;&#9;c-1.8-3.3-5.6-6.1-9.1-7.1c-6.1-1.6-11.2,2.9-11.8,8.9c-0.4,3.8,1,4.3,1.7,8c2.9,14.7,7.4,29.2,11.7,43.6&#10;&#9;&#9;&#9;c0.2,0.8,3.1,12.1,3.7,12.1c0,0-68,2-68,7C998,432.5,998,437.5,998,437.5z" id="ryqwdb9YqXf"/><g><path class="st25" d="M1129.2,473.9c0.6-0.2,1.1-0.4,1.5-0.9c0.3-0.4,0.4-0.8,0.4-1.3c0.5-3.9-2.2-7.4-4.4-10.6&#10;&#9;&#9;&#9;&#9;c-6.2-9.2-9.5-19.9-12.8-30.4c-4.2-13.6-8.5-27.2-11.6-41c-1.9-8.4-3.4-16.9-7-24.7c-6.5-13.9-18.2-19.7-33.2-18.4&#10;&#9;&#9;&#9;&#9;c-3,0.3-6,0.7-8.6,2.2c-4.1,2.3-6.4,6.8-7.5,11.3c-2.3,9.3-1.9,18.7-0.8,28.1c3.1,27.8,6.3,55.7,9.4,83.5&#10;&#9;&#9;&#9;&#9;c0.3,2.5,2.3,4.5,4.8,4.7c11.3,1.3,22.8-3.6,34.1-1.4C1105.9,477.3,1117.1,478.3,1129.2,473.9z" id="rk2P_-cFcQz"/></g><path class="st16" d="M998,440.5h85c0,0,10,1,8-8c-4.9-22.2-9.8-44.8-16.9-66.4c-1.3-4.1-2.2-7.4-4.3-11.2&#10;&#9;&#9;&#9;c-1.8-3.3-5.6-6.1-9.1-7.1c-6.1-1.6-11.2,2.9-11.8,8.9c-0.4,3.8,1,7.3,1.7,11c2.9,14.7,7.4,29.2,11.7,43.6&#10;&#9;&#9;&#9;c0.2,0.8,3.1,12.1,3.7,12.1c0,0-68,2-68,7C998,435.5,998,440.5,998,440.5z" id="Hk6DdZ9Yc7G"/></g><g id="ry0v_-9Y97G"><path class="st26" d="M1037.1,279.8c-7.8,1-15.8-1.7-19,7.6c-1.9,5.6-0.4,12.7,4.7,16.1c2.8,1.9,6.3,2.7,8.7,5&#10;&#9;&#9;&#9;c4.7,4.4,4.4,13,10.1,16c2.3,1.2,5,1.2,7.5,1.8c9.9,2.6,13.6,15.1,12.3,25.2c-0.4,3.6-1.2,7.5,0.5,10.7c2.6,4.8,9.9,5.8,11.8,10.9&#10;&#9;&#9;&#9;c1.4,3.7-0.6,8,1,11.6c3,6.6,14.1,3.6,18.9,9c2.3,2.6,4.2,7.4,7.4,6.1c2.8-1.1,1.8-5.3,1.6-8.3c-0.4-5.7,4-10.8,3.7-16.5&#10;&#9;&#9;&#9;c-0.3-6-5.8-10.8-6.3-16.8c-0.3-4.2,2-8.3,1.6-12.5c-0.4-5.5-5-9.6-6.8-14.8c-3.2-9.3,2.7-21.1-3.6-28.7&#10;&#9;&#9;&#9;c-5.8-7.1-15.6-5.9-19.5-14.8c-3.5-8-12.7-13.2-21.3-11.5c-4.3,0.9-8.2,3.2-12.6,3.9C1037.5,279.8,1037.3,279.8,1037.1,279.8z" id="ryJ_OZ5KqXf"/></g><linearGradient id="SVGID_1_" gradientUnits="userSpaceOnUse" x1="932" y1="372" x2="996" y2="372"><stop offset="0" style="stop-color:#BE5D61;stop-opacity:0.4"/><stop offset="1" style="stop-color:#BE5D61;stop-opacity:0"/></linearGradient><polygon class="st27" points="996,306 932,351 932,438 996,437.5 &#9;" id="S1lu_W9Kqmf"/></g><g id="Sk-uOb9tc7M"><path id="Syfu_-9KqQz" class="st18" d="M396.4,399.8c0.9-0.2,1.9,0.4,2.1,1.3l6.3,29.2l-1.3,5.1l-2.1-4.3l-6.3-29.2&#10;&#9;&#9;C394.9,400.9,395.5,400,396.4,399.8z"/><path id="H1Xd_ZcY5mf" class="st25" d="M392.8,423.9c4.7-0.9,10.1-1.2,13.7,2.4c0.4,0.4,0.1,1-0.4,1c-3.3,0.3-6.6-1.5-9.8-0.5&#10;&#9;&#9;c-2.1,0.7-4.2,1.4-6.2,2.3c-1.4,0.6-27.1,5.6-28.2,4.1c-0.9-1.2,0-3.7,1.1-4.5C364.8,427.6,390.7,424.3,392.8,423.9z"/><g id="ByNdd-9tc7G"><g><g><line class="st9" x1="238" y1="530" x2="202" y2="645" id="r1vudZ9K5Xz"/><line class="st9" x1="284" y1="530" x2="323" y2="645" id="ry__dZcF97f"/></g><path class="st10" d="M193.4,377.8c-0.3-0.2-0.7,0.2-0.5,0.5c3.2,4.6,11.2,24.6,12.1,66.7c1,50,5.5,91.5,60.5,89.5&#10;&#9;&#9;&#9;&#9;c42.3-1.5,52.3-10.4,53.7-13.5c0.3-0.7-0.3-1.4-1-1.2c-8,1.7-52.7,10.1-71.8-6.3c-19.6-16.8-25.7-43.7-28.7-68.2&#10;&#9;&#9;&#9;&#9;c-1.6-12.8-2.6-24.8-6.7-37.2C207.8,397.9,203,383.9,193.4,377.8z" id="HktuOZ9tqQz"/><g><line class="st9" x1="224" y1="520" x2="171" y2="662" id="SyiO_b5Y97M"/><line class="st9" x1="303" y1="528" x2="361" y2="662" id="rknO_b9Yq7G"/></g></g></g><g id="rJaOuZ5K5XM"><path class="st9" d="M378,640" id="Sk0uu-qt9mG"/><line class="st9" x1="539" y1="446" x2="539" y2="640" id="Hy1t_b9K97M"/><line class="st9" x1="378" y1="522.1" x2="539" y2="522.1" id="SkxFdZ5KcXf"/></g><g id="HyWtdb5Y5Xz"><g><path class="st18" d="M526.2,429.2l3.3,1.2l9.9-28.4c0.3-0.8-0.1-1.6-0.9-1.9l-0.5-0.2c-0.8-0.3-1.6,0.1-1.9,0.9L526.2,429.2z" id="rymFu-9K9mz"/><path class="st18" d="M519.2,429.2l3.3,1.2l9.9-28.4c0.3-0.8-0.1-1.6-0.9-1.9l-0.5-0.2c-0.8-0.3-1.6,0.1-1.9,0.9L519.2,429.2z" id="HJEFu-cK5XM"/><rect x="515.4" y="417.8" class="st11" width="20.6" height="25.7" id="HJBK_W5Y5mf"/></g></g><g id="BkLKOZ9tq7G"><path class="st11" d="M371,443.4h91.5c0,0-13.1-7.8-45.8-7.8S371,443.4,371,443.4z" id="HyPF_b5F5Qz"/></g><g id="r1utOZqKq7M"><g><polygon class="st28" points="437.7,613 453.4,644.8 460.1,638.7 447.6,597.9 &#9;&#9;&#9;" id="HyqFOb9YqmM"/><path class="st14" d="M449.9,636.4c-1.6-0.1-3.3-0.3-4.8,0.3c-2.7,1-4.4,3.9-4.6,6.8c-0.1,1.2,0,2.5,0.7,3.5c1.3,2,4,2.3,6.3,2.3&#10;&#9;&#9;&#9;&#9;c9.3,0,18.7-2.6,27.7-0.5c2.1,0.5,4.5,1.2,6.4,0.1c1.9-1.1,2.5-3.7,1.7-5.7c-0.8-2-2.7-3.4-4.7-4.2c-2-0.7-4.3-0.8-6.4-1&#10;&#9;&#9;&#9;&#9;C464.6,637.7,457.3,636.9,449.9,636.4z" id="BkstOWqK5XG"/><path class="st13" d="M270.3,503.3c31.1-32.5,88.5-28,127.1-13.8c1.7,0.6,3.7,1.5,5.6,2.6c2.4,0.5,4.5,2,5.9,5.1&#10;&#9;&#9;&#9;&#9;c4.7,10.7,41.4,105.5,44.6,113.7c0.1,0.4,0.1,0.7-0.2,1l-12.5,13.9c-0.5,0.6-1.4,0.4-1.7-0.4c-4.7-13.5-22.8-42.2-22.8-42.2&#10;&#9;&#9;&#9;&#9;c-13.4-21.5-20.7-59-20.7-59l-1.1-14.5c-1.7,0.4-3.2,0.8-4.2,1c-19,5-37.8,7.2-56.8,7.3c-13.9,0.1-28-0.9-42.2-2.5&#10;&#9;&#9;&#9;&#9;c-6.3-0.7-12.5-1.5-18.7-2.6C263.5,512.3,265.6,508.3,270.3,503.3z" id="Sk3FuZ9tcmz"/></g></g><g id="SypY_b5FcQf"><g><g><polygon class="st25" points="329,612.5 319,646.5 328,646.5 346.5,608 &#9;&#9;&#9;&#9;" id="SJlq_W9Y5Qf"/><path class="st17" d="M321.4,643.9c-1.6-0.1-3.3-0.3-4.8,0.3c-2.7,1-4.4,3.9-4.6,6.8c-0.1,1.2,0,2.5,0.7,3.5&#10;&#9;&#9;&#9;&#9;&#9;c1.3,2,4,2.3,6.3,2.3c9.3,0,18.7-2.6,27.7-0.5c2.1,0.5,4.5,1.2,6.4,0.1c1.9-1.1,2.5-3.7,1.7-5.7c-0.8-2-2.7-3.4-4.7-4.2&#10;&#9;&#9;&#9;&#9;&#9;c-2-0.7-4.3-0.8-6.4-1C336.1,645.2,328.8,644.4,321.4,643.9z" id="ryWc_Z5t57G"/><path class="st16" d="M327.3,618.5h15.7c0.4,0,0.7-0.2,0.9-0.5c4.4-7.5,56.9-98,61.7-108.5c3.8-8.3-4.2-13.5-10.9-16.3&#10;&#9;&#9;&#9;&#9;&#9;c-9.5-4-19.7-6.9-29.9-8.6c-18.9-3.2-38.6-2.9-57.5,0.2c-0.6,0.1-3.3,0.2-3.7,0.7c3-4,2-20,2-20h-60c0,0-7,18-7,28&#10;&#9;&#9;&#9;&#9;&#9;c0,9.6,4.6,21.9,29.6,24.7c3.1,0.3,6.3,0.8,9.4,1.3c17,2.6,66.4,8.8,95-1c0,0-23,30-30,54c0,0-9.2,32.1-16.1,44.5&#10;&#9;&#9;&#9;&#9;&#9;C326,617.7,326.5,618.5,327.3,618.5z" id="SJzqO-cF9mM"/></g></g></g><g id="ryQcdW9tcXM"><path class="st18" d="M541.3,468.5H375.7c-1.2,0-2.2-1-2.2-2.2v-19.6c0-1.2,1-2.2,2.2-2.2h165.6c1.2,0,2.2,1,2.2,2.2v19.6&#10;&#9;&#9;&#9;C543.5,467.5,542.5,468.5,541.3,468.5z" id="HJNcOb9K5mz"/><line class="st9" x1="378" y1="468" x2="378" y2="662" id="SyScOZqFcQG"/><line class="st9" x1="539" y1="468" x2="539" y2="662" id="r1LcdWqt9Xf"/><line class="st9" x1="378" y1="544.1" x2="539" y2="544.1" id="SyD5d-5Y97M"/></g><g id="B1uq_bcF97M"><rect x="-352" y="199" class="st19" width="47" height="97" id="SJK5uWcY97f"/><rect x="-284" y="199" class="st20" width="47" height="97" id="Sy99dWcY5Qz"/><rect x="-216" y="199" class="st21" width="47" height="97" id="SJjqdW9Y5Xz"/><path class="st25" d="M349.1,320.2c-0.5,2.6-1.1,5.1-2,7.5c-2.2,6-6.6,11.6-12.7,13.6c-6.7,2.2-15.1,0.2-20.1,5.3&#10;&#9;&#9;&#9;c-3,3.1-4.3,12.8-11,9.7c0.5-2.5,1.5-5,2.2-7.4c0.3-1.1,0.7-2.2,0.8-3.3c0.2-3.2-0.7-6.1-2.4-8.9c-6.6-10.5,3.1-24.7,7.7-34.7&#10;&#9;&#9;&#9;c1.9-4.2,4.2-8.6,8-11.3c6.1-4.3,21.2-6,27.2-0.6c3.8,3.4,3.9,11.4,3.6,16.1C350.3,310.7,350,315.5,349.1,320.2z" id="Hy3qdW9Y5mG"/></g><g id="ByT5d-9FqmM"><path class="st28" d="M376.7,433.8c4.8,0.1,10.1,1,12.8,5.2c0.3,0.4-0.1,1-0.6,0.9c-3.3-0.4-6.1-2.8-9.4-2.5&#10;&#9;&#9;&#9;c-2.2,0.2-4.4,0.5-6.5,0.9c-1.5,0.3-5.5,1.5-6.3-0.2c-0.6-1.4,0.8-3.6,2.1-4.1C370.7,433.2,374.7,433.8,376.7,433.8z" id="H1R5_Zqtq7M"/></g><g id="r11sdWqFcmf"><path class="st14" d="M371.5,442.5h-85c0,0-10,1-8-8c4.9-22.2,9.8-44.8,16.9-66.4c1.3-4.1,2.2-4.4,4.3-8.2&#10;&#9;&#9;&#9;c1.8-3.3,5.6-6.1,9.1-7.1c6.1-1.6,11.2,2.9,11.8,8.9c0.4,3.8-1,4.3-1.7,8c-2.9,14.7-7.4,29.2-11.7,43.6&#10;&#9;&#9;&#9;c-0.2,0.8-3.1,12.1-3.7,12.1c0,0,68,2,68,7C371.5,437.5,371.5,442.5,371.5,442.5z" id="BJljdb5KcQG"/><g><path class="st22" d="M240.3,473.9c-0.6-0.2-1.1-0.4-1.5-0.9c-0.3-0.4-0.4-0.8-0.4-1.3c-0.5-3.9,2.2-7.4,4.4-10.6&#10;&#9;&#9;&#9;&#9;c6.2-9.2,9.5-19.9,12.8-30.4c4.2-13.6,8.5-27.2,11.6-41c1.9-8.4,3.4-16.9,7-24.7c6.5-13.9,18.2-19.7,33.2-18.4&#10;&#9;&#9;&#9;&#9;c3,0.3,6,0.7,8.6,2.2c4.1,2.3,6.4,6.8,7.5,11.3c2.3,9.3,1.9,18.7,0.8,28.1c-3.1,27.8-6.3,55.7-9.4,83.5c-0.3,2.5-2.3,4.5-4.8,4.7&#10;&#9;&#9;&#9;&#9;c-11.3,1.3-22.8-3.6-34.1-1.4C263.6,477.3,252.4,478.3,240.3,473.9z" id="S1GjuZ5Y5Xz"/></g><path class="st17" d="M388.5,431.5l-83.1,13c0,0-9.6,3.1-9.5-6.1c0.1-22.7,0.2-45.9,2.5-68.4c0.4-4.3,0.6-7.7,1.8-11.8&#10;&#9;&#9;&#9;c1.1-3.6,4.1-7.2,7.4-8.9c5.7-2.9,11.6,0.5,13.5,6.2c1.2,3.7,0.6,7.3,0.6,11.1c0.2,15-1.1,30.1-2.2,45.1&#10;&#9;&#9;&#9;c-0.1,0.8-0.5,12.5-1.1,12.6c0,0,66.9-7.4,67.9-2.5C387.4,426.6,388.5,431.5,388.5,431.5z" id="SJmodWcFcXM"/></g><g id="HJNodb9tcQM"><path class="st13" d="M330.1,278.1c0.6,0.2,1.1,0.3,1.7,0.4c1.4,0.1,2.8-0.5,4.1-0.9c4-1.2,8.4-1,12,1.1&#10;&#9;&#9;&#9;c7.6,4.5,7.6,18.7-0.1,23.2c-6.2,3.6-10.5,2.4-13.8,9.4c-2,4.3-3.4,10.9-8,13.3c-3.1,1.7-6.5,1.5-9.7,2.7&#10;&#9;&#9;&#9;c-3.7,1.4-4.1,3.9-6.6,6.2c-4.5,4.1-12.6,3.4-15.8-2.1c-1.7-3-2.7-7.4-6.2-7.6c-1.1-0.1-2.2,0.4-3.3,0.4&#10;&#9;&#9;&#9;c-5.9-0.1-5.4-9.4-3.3-12.7c1.3-2.1,3.1-3.9,4.1-6.1c2.5-5.4,2.6-11,5.5-16.3c2.3-4.2,4.9-7.6,9.1-10.1c2.1-1.3,3.5-2.3,6-2.2&#10;&#9;&#9;&#9;c2.8,0,5.5,1.1,8.3,0.8c3.4-0.4,6.6-2.7,10-2C326.2,275.8,328.1,277.4,330.1,278.1z" id="SkrsuZqF9QG"/><path class="st13" d="M300.8,264.4c-3,1-5.6,3.3-8.7,3.6c-2.8,0.3-5.4-1.1-8.2-1.7c-2.7-0.6-6.3,0-7.2,2.6c-1,2.9,1.9,5.9,1.5,9&#10;&#9;&#9;&#9;c-0.5,4-6.2,6.7-5,10.5c0.3,1,1.1,1.8,1.4,2.7c0.6,1.5,0.2,3.2,0.3,4.7c0.2,2.8,2.1,5.4,4.7,6.4s5.8,0.5,7.9-1.4&#10;&#9;&#9;&#9;c0.9-0.8,1.6-1.8,2.6-2.6c2.8-2.3,7.2-1.7,10-3.9c3.2-2.4,3.2-6.7,4.7-10.2c1.7-3.8,5-5.4,7.2-8.7&#10;&#9;&#9;&#9;C316.8,268.7,307.5,262.3,300.8,264.4z" id="BkLjO-5t9Xz"/></g></g></svg>
</svg>