<?xml version="1.0" encoding="utf-8"?>
<!-- Generator: Adobe Illustrator 22.0.1, SVG Export Plug-In . SVG Version: 6.00 Build 0)  -->
<svg version="1.1" xmlns="http://www.w3.org/2000/svg" xmlns:xlink="http://www.w3.org/1999/xlink" x="0px" y="0px"
	 viewBox="0 0 1366 330.4" style="enable-background:new 0 0 1366 330.4;" xml:space="preserve">
<style type="text/css">
	.st0{fill:#FFE8E1;stroke:#FFE8E1;stroke-linecap:round;stroke-miterlimit:10;}
	.st1{fill:#FFE7DF;}
	.st2{fill:#C8807B;}
	.st3{fill:#B06264;}
	.st4{fill:#973741;stroke:#973741;stroke-linecap:round;stroke-linejoin:round;stroke-miterlimit:10;}
	.st5{fill:#830027;stroke:#8B001E;stroke-linecap:round;stroke-linejoin:round;stroke-miterlimit:10;}
	.st6{fill:url(#SVGID_1_);}
	.st7{opacity:0.7;fill:url(#SVGID_2_);}
</style>
<g id="Layer_3">
</g>
<g id="colours">
	<rect x="1423" y="-229.3" class="st0" width="88" height="88"/>
	<rect x="1541" y="-229.3" class="st1" width="88" height="88"/>
	<rect x="1659" y="-229.3" class="st2" width="88" height="88"/>
	<rect x="1423" y="-106.3" class="st3" width="88" height="88"/>
	<rect x="1541" y="-106.3" class="st4" width="88" height="88"/>
	<rect x="1659" y="-106.3" class="st5" width="88" height="88"/>
</g>
<g id="wave">
	<g>
		<rect y="-16.3" class="st1" width="1366" height="241"/>
	</g>
	<linearGradient id="SVGID_1_" gradientUnits="userSpaceOnUse" x1="683" y1="319.4494" x2="683" y2="141.7489">
		<stop  offset="0" style="stop-color:#FFE7DF"/>
		<stop  offset="0.873" style="stop-color:#FFE7DF;stop-opacity:0.127"/>
		<stop  offset="1" style="stop-color:#FFE7DF;stop-opacity:0"/>
	</linearGradient>
	<path class="st6" d="M1.5,141.7c0,32-3.4,65.7,0,97.4c5.3,50.2,75.1,77.5,120.6,73.8c39.9-3.3,78.2-25,117.9-19.6
		c22.1,3,44.8,17.7,67.4,16.1c22.5-1.6,37.6-22.8,58.8-29.4c41.1-12.8,81.3,27.8,124.3,25.9c29.5-1.3,54.9-22.3,84.2-25.8
		c55.4-6.6,105.9,50.3,160.1,37.4c29.4-7,52.9-33.7,83.1-34.1c33.8-0.4,60.2,32.6,93.8,35.7c55.1,5,99.9-70.5,152.1-52
		c13.2,4.7,23.6,14.9,35.2,22.8c32.7,22.3,77.4,25.6,113,8.4c16.1-7.8,32.5-19.9,50.1-16.3c11.1,2.3,20,10.5,30,15.8
		c23.5,12.7,54.9,8.3,74.1-10.2v-146"/>
	<linearGradient id="SVGID_2_" gradientUnits="userSpaceOnUse" x1="683" y1="299.3483" x2="683" y2="197.4593">
		<stop  offset="0" style="stop-color:#B06264;stop-opacity:0.7"/>
		<stop  offset="0.1441" style="stop-color:#B36869;stop-opacity:0.5991"/>
		<stop  offset="0.3286" style="stop-color:#BD7778;stop-opacity:0.47"/>
		<stop  offset="0.5349" style="stop-color:#CC9290;stop-opacity:0.3255"/>
		<stop  offset="0.7573" style="stop-color:#E2B6B2;stop-opacity:0.1699"/>
		<stop  offset="0.9901" style="stop-color:#FEE5DD;stop-opacity:6.925821e-03"/>
		<stop  offset="1" style="stop-color:#FFE7DF;stop-opacity:0"/>
	</linearGradient>
	<path class="st7" d="M0,197.5v94.9c30.1-35.7,80.8-52.6,126.3-42c45,10.5,83.5,45.1,129.7,46.2c58.7,1.4,106.3-51.7,164.8-57.6
		c78.1-7.9,147.6,69.6,225,56.5c35.7-6.1,67.6-31.2,103.8-29.6c40.6,1.8,75.6,37.2,116,33.2c42.2-4.2,71.3-49.7,113.5-54.5
		c52.1-5.9,95.2,52.7,147.4,46.9c25.8-2.9,47.5-21.3,73-26.1c28.2-5.3,56.4,6.7,83.8,15.4c27.4,8.7,59.8,13.5,82.8-3.7v-79.6"/>
</g>
</svg>
